<mxfile host="65bd71144e">
    <diagram id="1M6hHOikTzDbZVOEs2gD" name="ページ1">
        <mxGraphModel dx="832" dy="1560" grid="1" gridSize="10" guides="1" tooltips="1" connect="1" arrows="1" fold="1" page="1" pageScale="1" pageWidth="827" pageHeight="1169" math="0" shadow="0">
            <root>
                <mxCell id="0"/>
                <mxCell id="1" parent="0"/>
                <UserObject label="" mermaidData="{&#xa;  &quot;data&quot;: &quot;erDiagram\n\n    waste_items {\n        INT id PK\n        STRING name\n        INT category_id FK\n    }\n\n    sortingnumber {\n        INT id PK\n        STRING categories\n    }\n\n    sorting_translation {\n        INT id PK\n        INT sortingnumber_id FK\n        STRING jp\n        STRING en\n        STRING zh\n    }\n\n    sapporo_city_area {\n        INT id PK\n        STRING area\n        INT ward_id FK\n    }\n\n    area_zipcode {\n        INT id PK\n        STRING zipcode\n        STRING address\n        INT area_id FK\n    }\n\n    address_translation {\n        INT id PK\n        INT area_zip_id FK\n        STRING jp\n        STRING en\n    }\n\n    area_sorting {\n        INT id PK\n        INT area_id FK\n        INT sorting_id FK\n    }\n\n    wards {\n        INT id PK\n        STRING name\n    }\n\n    waste_items ||--o{ sortingnumber : \&quot;category_id → id\&quot;\n    sortingnumber ||--o{ sorting_translation : \&quot;id → sortingnumber_id\&quot;\n    sapporo_city_area ||--o{ area_zipcode : \&quot;id → area_id\&quot;\n    area_zipcode ||--o{ address_translation : \&quot;id → area_zip_id\&quot;\n    sapporo_city_area ||--o{ area_sorting : \&quot;id → area_id\&quot;\n    sortingnumber ||--o{ area_sorting : \&quot;id → sorting_id\&quot;\n    wards ||--o{ sapporo_city_area : \&quot;id → ward_id\&quot;\n&quot;&#xa;}" id="2">
                    <mxCell style="shape=image;noLabel=1;verticalAlign=top;imageAspect=1;image=data:image/svg+xml,PHN2ZyBhcmlhLXJvbGVkZXNjcmlwdGlvbj0iZXIiIHJvbGU9ImdyYXBoaWNzLWRvY3VtZW50IGRvY3VtZW50IiB2aWV3Qm94PSIwIDAgNjIyLjYzMzU0NDkyMTg3NSA3NjQuMzk5OTYzMzc4OTA2MiIgc3R5bGU9Im1heC13aWR0aDogNjIyLjYzMzU0NDkyMTg3NXB4OyIgeG1sbnM9Imh0dHA6Ly93d3cudzMub3JnLzIwMDAvc3ZnIiB3aWR0aD0iMTAwJSIgaWQ9ImdlTWVybWFpZE91dHB1dC0xNzQ0MzM2MjgxNjMwIj48c3R5bGU+I2dlTWVybWFpZE91dHB1dC0xNzQ0MzM2MjgxNjMwe2ZvbnQtZmFtaWx5OiJ0cmVidWNoZXQgbXMiLHZlcmRhbmEsYXJpYWwsc2Fucy1zZXJpZjtmb250LXNpemU6MTZweDtmaWxsOiMwMDAwMDA7fSNnZU1lcm1haWRPdXRwdXQtMTc0NDMzNjI4MTYzMCAuZXJyb3ItaWNvbntmaWxsOiM1NTIyMjI7fSNnZU1lcm1haWRPdXRwdXQtMTc0NDMzNjI4MTYzMCAuZXJyb3ItdGV4dHtmaWxsOiM1NTIyMjI7c3Ryb2tlOiM1NTIyMjI7fSNnZU1lcm1haWRPdXRwdXQtMTc0NDMzNjI4MTYzMCAuZWRnZS10aGlja25lc3Mtbm9ybWFse3N0cm9rZS13aWR0aDoxcHg7fSNnZU1lcm1haWRPdXRwdXQtMTc0NDMzNjI4MTYzMCAuZWRnZS10aGlja25lc3MtdGhpY2t7c3Ryb2tlLXdpZHRoOjMuNXB4O30jZ2VNZXJtYWlkT3V0cHV0LTE3NDQzMzYyODE2MzAgLmVkZ2UtcGF0dGVybi1zb2xpZHtzdHJva2UtZGFzaGFycmF5OjA7fSNnZU1lcm1haWRPdXRwdXQtMTc0NDMzNjI4MTYzMCAuZWRnZS10aGlja25lc3MtaW52aXNpYmxle3N0cm9rZS13aWR0aDowO2ZpbGw6bm9uZTt9I2dlTWVybWFpZE91dHB1dC0xNzQ0MzM2MjgxNjMwIC5lZGdlLXBhdHRlcm4tZGFzaGVke3N0cm9rZS1kYXNoYXJyYXk6Mzt9I2dlTWVybWFpZE91dHB1dC0xNzQ0MzM2MjgxNjMwIC5lZGdlLXBhdHRlcm4tZG90dGVke3N0cm9rZS1kYXNoYXJyYXk6Mjt9I2dlTWVybWFpZE91dHB1dC0xNzQ0MzM2MjgxNjMwIC5tYXJrZXJ7ZmlsbDojNjY2O3N0cm9rZTojNjY2O30jZ2VNZXJtYWlkT3V0cHV0LTE3NDQzMzYyODE2MzAgLm1hcmtlci5jcm9zc3tzdHJva2U6IzY2Njt9I2dlTWVybWFpZE91dHB1dC0xNzQ0MzM2MjgxNjMwIHN2Z3tmb250LWZhbWlseToidHJlYnVjaGV0IG1zIix2ZXJkYW5hLGFyaWFsLHNhbnMtc2VyaWY7Zm9udC1zaXplOjE2cHg7fSNnZU1lcm1haWRPdXRwdXQtMTc0NDMzNjI4MTYzMCBwe21hcmdpbjowO30jZ2VNZXJtYWlkT3V0cHV0LTE3NDQzMzYyODE2MzAgLmVudGl0eUJveHtmaWxsOiNlZWU7c3Ryb2tlOiM5OTk7fSNnZU1lcm1haWRPdXRwdXQtMTc0NDMzNjI4MTYzMCAuYXR0cmlidXRlQm94T2Rke2ZpbGw6I2ZmZmZmZjtzdHJva2U6Izk5OTt9I2dlTWVybWFpZE91dHB1dC0xNzQ0MzM2MjgxNjMwIC5hdHRyaWJ1dGVCb3hFdmVue2ZpbGw6I2YyZjJmMjtzdHJva2U6Izk5OTt9I2dlTWVybWFpZE91dHB1dC0xNzQ0MzM2MjgxNjMwIC5yZWxhdGlvbnNoaXBMYWJlbEJveHtmaWxsOmhzbCgtMTYwLCAwJSwgOTMuMzMzMzMzMzMzMyUpO29wYWNpdHk6MC43O2JhY2tncm91bmQtY29sb3I6aHNsKC0xNjAsIDAlLCA5My4zMzMzMzMzMzMzJSk7fSNnZU1lcm1haWRPdXRwdXQtMTc0NDMzNjI4MTYzMCAucmVsYXRpb25zaGlwTGFiZWxCb3ggcmVjdHtvcGFjaXR5OjAuNTt9I2dlTWVybWFpZE91dHB1dC0xNzQ0MzM2MjgxNjMwIC5yZWxhdGlvbnNoaXBMaW5le3N0cm9rZTojNjY2O30jZ2VNZXJtYWlkT3V0cHV0LTE3NDQzMzYyODE2MzAgLmVudGl0eVRpdGxlVGV4dHt0ZXh0LWFuY2hvcjptaWRkbGU7Zm9udC1zaXplOjE4cHg7ZmlsbDojMDAwMDAwO30jZ2VNZXJtYWlkT3V0cHV0LTE3NDQzMzYyODE2MzAgI01EX1BBUkVOVF9TVEFSVHtmaWxsOiNmNWY1ZjUhaW1wb3J0YW50O3N0cm9rZTojNjY2IWltcG9ydGFudDtzdHJva2Utd2lkdGg6MTt9I2dlTWVybWFpZE91dHB1dC0xNzQ0MzM2MjgxNjMwICNNRF9QQVJFTlRfRU5Ee2ZpbGw6I2Y1ZjVmNSFpbXBvcnRhbnQ7c3Ryb2tlOiM2NjYhaW1wb3J0YW50O3N0cm9rZS13aWR0aDoxO30jZ2VNZXJtYWlkT3V0cHV0LTE3NDQzMzYyODE2MzAgOnJvb3R7LS1tZXJtYWlkLWZvbnQtZmFtaWx5OiJ0cmVidWNoZXQgbXMiLHZlcmRhbmEsYXJpYWwsc2Fucy1zZXJpZjt9PC9zdHlsZT48Zz48L2c+PGRlZnM+PG1hcmtlciBvcmllbnQ9ImF1dG8iIG1hcmtlckhlaWdodD0iMjQwIiBtYXJrZXJXaWR0aD0iMTkwIiByZWZZPSI3IiByZWZYPSIwIiBpZD0iTURfUEFSRU5UX1NUQVJUIj48cGF0aCBkPSJNIDE4LDcgTDksMTMgTDEsNyBMOSwxIFoiPjwvcGF0aD48L21hcmtlcj48L2RlZnM+PGRlZnM+PG1hcmtlciBvcmllbnQ9ImF1dG8iIG1hcmtlckhlaWdodD0iMjgiIG1hcmtlcldpZHRoPSIyMCIgcmVmWT0iNyIgcmVmWD0iMTkiIGlkPSJNRF9QQVJFTlRfRU5EIj48cGF0aCBkPSJNIDE4LDcgTDksMTMgTDEsNyBMOSwxIFoiPjwvcGF0aD48L21hcmtlcj48L2RlZnM+PGRlZnM+PG1hcmtlciBvcmllbnQ9ImF1dG8iIG1hcmtlckhlaWdodD0iMTgiIG1hcmtlcldpZHRoPSIxOCIgcmVmWT0iOSIgcmVmWD0iMCIgaWQ9Ik9OTFlfT05FX1NUQVJUIj48cGF0aCBkPSJNOSwwIEw5LDE4IE0xNSwwIEwxNSwxOCIgZmlsbD0ibm9uZSIgc3Ryb2tlPSJncmF5Ij48L3BhdGg+PC9tYXJrZXI+PC9kZWZzPjxkZWZzPjxtYXJrZXIgb3JpZW50PSJhdXRvIiBtYXJrZXJIZWlnaHQ9IjE4IiBtYXJrZXJXaWR0aD0iMTgiIHJlZlk9IjkiIHJlZlg9IjE4IiBpZD0iT05MWV9PTkVfRU5EIj48cGF0aCBkPSJNMywwIEwzLDE4IE05LDAgTDksMTgiIGZpbGw9Im5vbmUiIHN0cm9rZT0iZ3JheSI+PC9wYXRoPjwvbWFya2VyPjwvZGVmcz48ZGVmcz48bWFya2VyIG9yaWVudD0iYXV0byIgbWFya2VySGVpZ2h0PSIxOCIgbWFya2VyV2lkdGg9IjMwIiByZWZZPSI5IiByZWZYPSIwIiBpZD0iWkVST19PUl9PTkVfU1RBUlQiPjxjaXJjbGUgcj0iNiIgY3k9IjkiIGN4PSIyMSIgZmlsbD0id2hpdGUiIHN0cm9rZT0iZ3JheSI+PC9jaXJjbGU+PHBhdGggZD0iTTksMCBMOSwxOCIgZmlsbD0ibm9uZSIgc3Ryb2tlPSJncmF5Ij48L3BhdGg+PC9tYXJrZXI+PC9kZWZzPjxkZWZzPjxtYXJrZXIgb3JpZW50PSJhdXRvIiBtYXJrZXJIZWlnaHQ9IjE4IiBtYXJrZXJXaWR0aD0iMzAiIHJlZlk9IjkiIHJlZlg9IjMwIiBpZD0iWkVST19PUl9PTkVfRU5EIj48Y2lyY2xlIHI9IjYiIGN5PSI5IiBjeD0iOSIgZmlsbD0id2hpdGUiIHN0cm9rZT0iZ3JheSI+PC9jaXJjbGU+PHBhdGggZD0iTTIxLDAgTDIxLDE4IiBmaWxsPSJub25lIiBzdHJva2U9ImdyYXkiPjwvcGF0aD48L21hcmtlcj48L2RlZnM+PGRlZnM+PG1hcmtlciBvcmllbnQ9ImF1dG8iIG1hcmtlckhlaWdodD0iMzYiIG1hcmtlcldpZHRoPSI0NSIgcmVmWT0iMTgiIHJlZlg9IjE4IiBpZD0iT05FX09SX01PUkVfU1RBUlQiPjxwYXRoIGQ9Ik0wLDE4IFEgMTgsMCAzNiwxOCBRIDE4LDM2IDAsMTggTTQyLDkgTDQyLDI3IiBmaWxsPSJub25lIiBzdHJva2U9ImdyYXkiPjwvcGF0aD48L21hcmtlcj48L2RlZnM+PGRlZnM+PG1hcmtlciBvcmllbnQ9ImF1dG8iIG1hcmtlckhlaWdodD0iMzYiIG1hcmtlcldpZHRoPSI0NSIgcmVmWT0iMTgiIHJlZlg9IjI3IiBpZD0iT05FX09SX01PUkVfRU5EIj48cGF0aCBkPSJNMyw5IEwzLDI3IE05LDE4IFEyNywwIDQ1LDE4IFEyNywzNiA5LDE4IiBmaWxsPSJub25lIiBzdHJva2U9ImdyYXkiPjwvcGF0aD48L21hcmtlcj48L2RlZnM+PGRlZnM+PG1hcmtlciBvcmllbnQ9ImF1dG8iIG1hcmtlckhlaWdodD0iMzYiIG1hcmtlcldpZHRoPSI1NyIgcmVmWT0iMTgiIHJlZlg9IjE4IiBpZD0iWkVST19PUl9NT1JFX1NUQVJUIj48Y2lyY2xlIHI9IjYiIGN5PSIxOCIgY3g9IjQ4IiBmaWxsPSJ3aGl0ZSIgc3Ryb2tlPSJncmF5Ij48L2NpcmNsZT48cGF0aCBkPSJNMCwxOCBRMTgsMCAzNiwxOCBRMTgsMzYgMCwxOCIgZmlsbD0ibm9uZSIgc3Ryb2tlPSJncmF5Ij48L3BhdGg+PC9tYXJrZXI+PC9kZWZzPjxkZWZzPjxtYXJrZXIgb3JpZW50PSJhdXRvIiBtYXJrZXJIZWlnaHQ9IjM2IiBtYXJrZXJXaWR0aD0iNTciIHJlZlk9IjE4IiByZWZYPSIzOSIgaWQ9IlpFUk9fT1JfTU9SRV9FTkQiPjxjaXJjbGUgcj0iNiIgY3k9IjE4IiBjeD0iOSIgZmlsbD0id2hpdGUiIHN0cm9rZT0iZ3JheSI+PC9jaXJjbGU+PHBhdGggZD0iTTIxLDE4IFEzOSwwIDU3LDE4IFEzOSwzNiAyMSwxOCIgZmlsbD0ibm9uZSIgc3Ryb2tlPSJncmF5Ij48L3BhdGg+PC9tYXJrZXI+PC9kZWZzPjxwYXRoIHN0eWxlPSJzdHJva2U6IGdyYXk7IGZpbGw6IG5vbmU7IiBtYXJrZXItc3RhcnQ9InVybCgjT05MWV9PTkVfU1RBUlQpIiBtYXJrZXItZW5kPSJ1cmwoI1pFUk9fT1JfTU9SRV9FTkQpIiBkPSJNMTQ3LjY5NCwxMDkuNkwxNDcuNjk0LDExNy45MzNDMTQ3LjY5NCwxMjYuMjY3LDE0Ny42OTQsMTQyLjkzMywxNDcuNjk0LDE2MS40MzNDMTQ3LjY5NCwxNzkuOTMzLDE0Ny42OTQsMjAwLjI2NywxNDcuNjk0LDIxMC40MzNMMTQ3LjY5NCwyMjAuNiIgY2xhc3M9ImVyIHJlbGF0aW9uc2hpcExpbmUiPjwvcGF0aD48cGF0aCBzdHlsZT0ic3Ryb2tlOiBncmF5OyBmaWxsOiBub25lOyIgbWFya2VyLXN0YXJ0PSJ1cmwoI09OTFlfT05FX1NUQVJUKSIgbWFya2VyLWVuZD0idXJsKCNaRVJPX09SX01PUkVfRU5EKSIgZD0iTTEyOS44NjcsMjg4LjJMMTI0LjUwNSwyOTguMzY3QzExOS4xNDMsMzA4LjUzMywxMDguNDE4LDMyOC44NjcsMTAzLjA1NiwzNDcuMzY3Qzk3LjY5NCwzNjUuODY3LDk3LjY5NCwzODIuNTMzLDk3LjY5NCwzOTAuODY3TDk3LjY5NCwzOTkuMiIgY2xhc3M9ImVyIHJlbGF0aW9uc2hpcExpbmUiPjwvcGF0aD48cGF0aCBzdHlsZT0ic3Ryb2tlOiBncmF5OyBmaWxsOiBub25lOyIgbWFya2VyLXN0YXJ0PSJ1cmwoI09OTFlfT05FX1NUQVJUKSIgbWFya2VyLWVuZD0idXJsKCNaRVJPX09SX01PUkVfRU5EKSIgZD0iTTQ3NC4wMTksMjgzLjgyTDQ1MC4yLDI5NC43MTdDNDI2LjM4MiwzMDUuNjEzLDM3OC43NDQsMzI3LjQwNywzNTQuOTI2LDM0OC40N0MzMzEuMTA3LDM2OS41MzMsMzMxLjEwNywzODkuODY3LDMzMS4xMDcsNDAwLjAzM0wzMzEuMTA3LDQxMC4yIiBjbGFzcz0iZXIgcmVsYXRpb25zaGlwTGluZSI+PC9wYXRoPjxwYXRoIHN0eWxlPSJzdHJva2U6IGdyYXk7IGZpbGw6IG5vbmU7IiBtYXJrZXItc3RhcnQ9InVybCgjT05MWV9PTkVfU1RBUlQpIiBtYXJrZXItZW5kPSJ1cmwoI1pFUk9fT1JfTU9SRV9FTkQpIiBkPSJNMzMxLjEwNyw1MjEuOEwzMzEuMTA3LDUzMS45NjdDMzMxLjEwNyw1NDIuMTMzLDMzMS4xMDcsNTYyLjQ2NywzMzEuMTA3LDU4MC45NjdDMzMxLjEwNyw1OTkuNDY3LDMzMS4xMDcsNjE2LjEzMywzMzEuMTA3LDYyNC40NjdMMzMxLjEwNyw2MzIuOCIgY2xhc3M9ImVyIHJlbGF0aW9uc2hpcExpbmUiPjwvcGF0aD48cGF0aCBzdHlsZT0ic3Ryb2tlOiBncmF5OyBmaWxsOiBub25lOyIgbWFya2VyLXN0YXJ0PSJ1cmwoI09OTFlfT05FX1NUQVJUKSIgbWFya2VyLWVuZD0idXJsKCNaRVJPX09SX01PUkVfRU5EKSIgZD0iTTUzOC4zMjYsMjk5LjJMNTM4LjMyNiwzMDcuNTMzQzUzOC4zMjYsMzE1Ljg2Nyw1MzguMzI2LDMzMi41MzMsNTM4LjMyNiwzNTIuODY3QzUzOC4zMjYsMzczLjIsNTM4LjMyNiwzOTcuMiw1MzguMzI2LDQwOS4yTDUzOC4zMjYsNDIxLjIiIGNsYXNzPSJlciByZWxhdGlvbnNoaXBMaW5lIj48L3BhdGg+PHBhdGggc3R5bGU9InN0cm9rZTogZ3JheTsgZmlsbDogbm9uZTsiIG1hcmtlci1zdGFydD0idXJsKCNPTkxZX09ORV9TVEFSVCkiIG1hcmtlci1lbmQ9InVybCgjWkVST19PUl9NT1JFX0VORCkiIGQ9Ik0xNzEuNDc4LDI4OC4yTDE3OC42MzEsMjk4LjM2N0MxODUuNzg1LDMwOC41MzMsMjAwLjA5MywzMjguODY3LDI1Mi42NTEsMzU1LjQwNUMzMDUuMjA5LDM4MS45NDQsMzk2LjAxOCw0MTQuNjg3LDQ0MS40MjIsNDMxLjA1OUw0ODYuODI3LDQ0Ny40MzEiIGNsYXNzPSJlciByZWxhdGlvbnNoaXBMaW5lIj48L3BhdGg+PHBhdGggc3R5bGU9InN0cm9rZTogZ3JheTsgZmlsbDogbm9uZTsiIG1hcmtlci1zdGFydD0idXJsKCNPTkxZX09ORV9TVEFSVCkiIG1hcmtlci1lbmQ9InVybCgjWkVST19PUl9NT1JFX0VORCkiIGQ9Ik01MzguMzI2LDk4LjZMNTM4LjMyNiwxMDguNzY3QzUzOC4zMjYsMTE4LjkzMyw1MzguMzI2LDEzOS4yNjcsNTM4LjMyNiwxNTcuNzY3QzUzOC4zMjYsMTc2LjI2Nyw1MzguMzI2LDE5Mi45MzMsNTM4LjMyNiwyMDEuMjY3TDUzOC4zMjYsMjA5LjYiIGNsYXNzPSJlciByZWxhdGlvbnNoaXBMaW5lIj48L3BhdGg+PGcgdHJhbnNmb3JtPSJ0cmFuc2xhdGUoODMuMjE4NzUsMjAgKSIgaWQ9ImVudGl0eS13YXN0ZWl0ZW1zLTBhZDVlYWU4LTMwZmItNWVjZS1iMzk3LTQyOGYwMzA4NDU2YyI+PHJlY3QgaGVpZ2h0PSI4OS42MDAwMDAzODE0Njk3MyIgd2lkdGg9IjEyOC45NTAyOTM1NDA5NTQ2IiB5PSIwIiB4PSIwIiBjbGFzcz0iZXIgZW50aXR5Qm94Ij48L3JlY3Q+PHRleHQgc3R5bGU9ImRvbWluYW50LWJhc2VsaW5lOiBtaWRkbGU7IHRleHQtYW5jaG9yOiBtaWRkbGU7IGZvbnQtc2l6ZTogMTJweDsiIHRyYW5zZm9ybT0idHJhbnNsYXRlKDY0LjQ3NTE0Njc3MDQ3NzMsMTEuODAwMDAwMTkwNzM0ODYzKSIgeT0iMCIgeD0iMCIgaWQ9InRleHQtZW50aXR5LXdhc3RlaXRlbXMtMGFkNWVhZTgtMzBmYi01ZWNlLWIzOTctNDI4ZjAzMDg0NTZjIiBjbGFzcz0iZXIgZW50aXR5TGFiZWwiPndhc3RlX2l0ZW1zPC90ZXh0PjxyZWN0IGhlaWdodD0iMjIiIHdpZHRoPSI0My4zMTI1OTkxODIxMjg5MDYiIHk9IjIzLjYwMDAwMDM4MTQ2OTcyNyIgeD0iMCIgY2xhc3M9ImVyIGF0dHJpYnV0ZUJveE9kZCI+PC9yZWN0Pjx0ZXh0IHN0eWxlPSJkb21pbmFudC1iYXNlbGluZTogbWlkZGxlOyBmb250LXNpemU6IDEwLjJweDsiIHRyYW5zZm9ybT0idHJhbnNsYXRlKDUsMzQuNjAwMDAwMzgxNDY5NzMpIiB5PSIwIiB4PSIwIiBpZD0idGV4dC1lbnRpdHktd2FzdGVpdGVtcy0wYWQ1ZWFlOC0zMGZiLTVlY2UtYjM5Ny00MjhmMDMwODQ1NmMtYXR0ci0xLXR5cGUiIGNsYXNzPSJlciBlbnRpdHlMYWJlbCI+SU5UPC90ZXh0PjxyZWN0IGhlaWdodD0iMjIiIHdpZHRoPSI2My41NDk5OTkyMzcwNjA1NSIgeT0iMjMuNjAwMDAwMzgxNDY5NzI3IiB4PSI0My4zMTI1OTkxODIxMjg5MDYiIGNsYXNzPSJlciBhdHRyaWJ1dGVCb3hPZGQiPjwvcmVjdD48dGV4dCBzdHlsZT0iZG9taW5hbnQtYmFzZWxpbmU6IG1pZGRsZTsgZm9udC1zaXplOiAxMC4ycHg7IiB0cmFuc2Zvcm09InRyYW5zbGF0ZSg0OC4zMTI1OTkxODIxMjg5MDYsMzQuNjAwMDAwMzgxNDY5NzMpIiB5PSIwIiB4PSIwIiBpZD0idGV4dC1lbnRpdHktd2FzdGVpdGVtcy0wYWQ1ZWFlOC0zMGZiLTVlY2UtYjM5Ny00MjhmMDMwODQ1NmMtYXR0ci0xLW5hbWUiIGNsYXNzPSJlciBlbnRpdHlMYWJlbCI+aWQ8L3RleHQ+PHJlY3QgaGVpZ2h0PSIyMiIgd2lkdGg9IjIyLjA4NzY5NTEyMTc2NTEzNyIgeT0iMjMuNjAwMDAwMzgxNDY5NzI3IiB4PSIxMDYuODYyNTk4NDE5MTg5NDUiIGNsYXNzPSJlciBhdHRyaWJ1dGVCb3hPZGQiPjwvcmVjdD48dGV4dCBzdHlsZT0iZG9taW5hbnQtYmFzZWxpbmU6IG1pZGRsZTsgZm9udC1zaXplOiAxMC4ycHg7IiB0cmFuc2Zvcm09InRyYW5zbGF0ZSgxMTEuODYyNTk4NDE5MTg5NDUsMzQuNjAwMDAwMzgxNDY5NzMpIiB5PSIwIiB4PSIwIiBpZD0idGV4dC1lbnRpdHktd2FzdGVpdGVtcy0wYWQ1ZWFlOC0zMGZiLTVlY2UtYjM5Ny00MjhmMDMwODQ1NmMtYXR0ci0xLWtleSIgY2xhc3M9ImVyIGVudGl0eUxhYmVsIj5QSzwvdGV4dD48cmVjdCBoZWlnaHQ9IjIyIiB3aWR0aD0iNDMuMzEyNTk5MTgyMTI4OTA2IiB5PSI0NS42MDAwMDAzODE0Njk3MyIgeD0iMCIgY2xhc3M9ImVyIGF0dHJpYnV0ZUJveEV2ZW4iPjwvcmVjdD48dGV4dCBzdHlsZT0iZG9taW5hbnQtYmFzZWxpbmU6IG1pZGRsZTsgZm9udC1zaXplOiAxMC4ycHg7IiB0cmFuc2Zvcm09InRyYW5zbGF0ZSg1LDU2LjYwMDAwMDM4MTQ2OTczKSIgeT0iMCIgeD0iMCIgaWQ9InRleHQtZW50aXR5LXdhc3RlaXRlbXMtMGFkNWVhZTgtMzBmYi01ZWNlLWIzOTctNDI4ZjAzMDg0NTZjLWF0dHItMi10eXBlIiBjbGFzcz0iZXIgZW50aXR5TGFiZWwiPlNUUklORzwvdGV4dD48cmVjdCBoZWlnaHQ9IjIyIiB3aWR0aD0iNjMuNTQ5OTk5MjM3MDYwNTUiIHk9IjQ1LjYwMDAwMDM4MTQ2OTczIiB4PSI0My4zMTI1OTkxODIxMjg5MDYiIGNsYXNzPSJlciBhdHRyaWJ1dGVCb3hFdmVuIj48L3JlY3Q+PHRleHQgc3R5bGU9ImRvbWluYW50LWJhc2VsaW5lOiBtaWRkbGU7IGZvbnQtc2l6ZTogMTAuMnB4OyIgdHJhbnNmb3JtPSJ0cmFuc2xhdGUoNDguMzEyNTk5MTgyMTI4OTA2LDU2LjYwMDAwMDM4MTQ2OTczKSIgeT0iMCIgeD0iMCIgaWQ9InRleHQtZW50aXR5LXdhc3RlaXRlbXMtMGFkNWVhZTgtMzBmYi01ZWNlLWIzOTctNDI4ZjAzMDg0NTZjLWF0dHItMi1uYW1lIiBjbGFzcz0iZXIgZW50aXR5TGFiZWwiPm5hbWU8L3RleHQ+PHJlY3QgaGVpZ2h0PSIyMiIgd2lkdGg9IjIyLjA4NzY5NTEyMTc2NTEzNyIgeT0iNDUuNjAwMDAwMzgxNDY5NzMiIHg9IjEwNi44NjI1OTg0MTkxODk0NSIgY2xhc3M9ImVyIGF0dHJpYnV0ZUJveEV2ZW4iPjwvcmVjdD48dGV4dCBzdHlsZT0iZG9taW5hbnQtYmFzZWxpbmU6IG1pZGRsZTsgZm9udC1zaXplOiAxMC4ycHg7IiB0cmFuc2Zvcm09InRyYW5zbGF0ZSgxMTEuODYyNTk4NDE5MTg5NDUsNTYuNjAwMDAwMzgxNDY5NzMpIiB5PSIwIiB4PSIwIiBpZD0idGV4dC1lbnRpdHktd2FzdGVpdGVtcy0wYWQ1ZWFlOC0zMGZiLTVlY2UtYjM5Ny00MjhmMDMwODQ1NmMtYXR0ci0yLWtleSIgY2xhc3M9ImVyIGVudGl0eUxhYmVsIj48L3RleHQ+PHJlY3QgaGVpZ2h0PSIyMiIgd2lkdGg9IjQzLjMxMjU5OTE4MjEyODkwNiIgeT0iNjcuNjAwMDAwMzgxNDY5NzMiIHg9IjAiIGNsYXNzPSJlciBhdHRyaWJ1dGVCb3hPZGQiPjwvcmVjdD48dGV4dCBzdHlsZT0iZG9taW5hbnQtYmFzZWxpbmU6IG1pZGRsZTsgZm9udC1zaXplOiAxMC4ycHg7IiB0cmFuc2Zvcm09InRyYW5zbGF0ZSg1LDc4LjYwMDAwMDM4MTQ2OTczKSIgeT0iMCIgeD0iMCIgaWQ9InRleHQtZW50aXR5LXdhc3RlaXRlbXMtMGFkNWVhZTgtMzBmYi01ZWNlLWIzOTctNDI4ZjAzMDg0NTZjLWF0dHItMy10eXBlIiBjbGFzcz0iZXIgZW50aXR5TGFiZWwiPklOVDwvdGV4dD48cmVjdCBoZWlnaHQ9IjIyIiB3aWR0aD0iNjMuNTQ5OTk5MjM3MDYwNTUiIHk9IjY3LjYwMDAwMDM4MTQ2OTczIiB4PSI0My4zMTI1OTkxODIxMjg5MDYiIGNsYXNzPSJlciBhdHRyaWJ1dGVCb3hPZGQiPjwvcmVjdD48dGV4dCBzdHlsZT0iZG9taW5hbnQtYmFzZWxpbmU6IG1pZGRsZTsgZm9udC1zaXplOiAxMC4ycHg7IiB0cmFuc2Zvcm09InRyYW5zbGF0ZSg0OC4zMTI1OTkxODIxMjg5MDYsNzguNjAwMDAwMzgxNDY5NzMpIiB5PSIwIiB4PSIwIiBpZD0idGV4dC1lbnRpdHktd2FzdGVpdGVtcy0wYWQ1ZWFlOC0zMGZiLTVlY2UtYjM5Ny00MjhmMDMwODQ1NmMtYXR0ci0zLW5hbWUiIGNsYXNzPSJlciBlbnRpdHlMYWJlbCI+Y2F0ZWdvcnlfaWQ8L3RleHQ+PHJlY3QgaGVpZ2h0PSIyMiIgd2lkdGg9IjIyLjA4NzY5NTEyMTc2NTEzNyIgeT0iNjcuNjAwMDAwMzgxNDY5NzMiIHg9IjEwNi44NjI1OTg0MTkxODk0NSIgY2xhc3M9ImVyIGF0dHJpYnV0ZUJveE9kZCI+PC9yZWN0Pjx0ZXh0IHN0eWxlPSJkb21pbmFudC1iYXNlbGluZTogbWlkZGxlOyBmb250LXNpemU6IDEwLjJweDsiIHRyYW5zZm9ybT0idHJhbnNsYXRlKDExMS44NjI1OTg0MTkxODk0NSw3OC42MDAwMDAzODE0Njk3MykiIHk9IjAiIHg9IjAiIGlkPSJ0ZXh0LWVudGl0eS13YXN0ZWl0ZW1zLTBhZDVlYWU4LTMwZmItNWVjZS1iMzk3LTQyOGYwMzA4NDU2Yy1hdHRyLTMta2V5IiBjbGFzcz0iZXIgZW50aXR5TGFiZWwiPkZLPC90ZXh0PjwvZz48ZyB0cmFuc2Zvcm09InRyYW5zbGF0ZSg4Ni4wNzA2NTIwMDgwNTY2NCwyMjAuNTk5OTk4NDc0MTIxMSApIiBpZD0iZW50aXR5LXNvcnRpbmdudW1iZXItOWVjMWY4NDUtMDg1Ni01OWZlLTlmZjMtZGE1NDczNGNhN2E4Ij48cmVjdCBoZWlnaHQ9IjY3LjYwMDAwMDM4MTQ2OTczIiB3aWR0aD0iMTIzLjI0NjQ4NTcxMDE0NDA0IiB5PSIwIiB4PSIwIiBjbGFzcz0iZXIgZW50aXR5Qm94Ij48L3JlY3Q+PHRleHQgc3R5bGU9ImRvbWluYW50LWJhc2VsaW5lOiBtaWRkbGU7IHRleHQtYW5jaG9yOiBtaWRkbGU7IGZvbnQtc2l6ZTogMTJweDsiIHRyYW5zZm9ybT0idHJhbnNsYXRlKDYxLjYyMzI0Mjg1NTA3MjAyLDExLjgwMDAwMDE5MDczNDg2MykiIHk9IjAiIHg9IjAiIGlkPSJ0ZXh0LWVudGl0eS1zb3J0aW5nbnVtYmVyLTllYzFmODQ1LTA4NTYtNTlmZS05ZmYzLWRhNTQ3MzRjYTdhOCIgY2xhc3M9ImVyIGVudGl0eUxhYmVsIj5zb3J0aW5nbnVtYmVyPC90ZXh0PjxyZWN0IGhlaWdodD0iMjIiIHdpZHRoPSI0My4zMTI1OTkxODIxMjg5MDYiIHk9IjIzLjYwMDAwMDM4MTQ2OTcyNyIgeD0iMCIgY2xhc3M9ImVyIGF0dHJpYnV0ZUJveE9kZCI+PC9yZWN0Pjx0ZXh0IHN0eWxlPSJkb21pbmFudC1iYXNlbGluZTogbWlkZGxlOyBmb250LXNpemU6IDEwLjJweDsiIHRyYW5zZm9ybT0idHJhbnNsYXRlKDUsMzQuNjAwMDAwMzgxNDY5NzMpIiB5PSIwIiB4PSIwIiBpZD0idGV4dC1lbnRpdHktc29ydGluZ251bWJlci05ZWMxZjg0NS0wODU2LTU5ZmUtOWZmMy1kYTU0NzM0Y2E3YTgtYXR0ci0xLXR5cGUiIGNsYXNzPSJlciBlbnRpdHlMYWJlbCI+SU5UPC90ZXh0PjxyZWN0IGhlaWdodD0iMjIiIHdpZHRoPSI1Ny44NDYxOTE0MDYyNSIgeT0iMjMuNjAwMDAwMzgxNDY5NzI3IiB4PSI0My4zMTI1OTkxODIxMjg5MDYiIGNsYXNzPSJlciBhdHRyaWJ1dGVCb3hPZGQiPjwvcmVjdD48dGV4dCBzdHlsZT0iZG9taW5hbnQtYmFzZWxpbmU6IG1pZGRsZTsgZm9udC1zaXplOiAxMC4ycHg7IiB0cmFuc2Zvcm09InRyYW5zbGF0ZSg0OC4zMTI1OTkxODIxMjg5MDYsMzQuNjAwMDAwMzgxNDY5NzMpIiB5PSIwIiB4PSIwIiBpZD0idGV4dC1lbnRpdHktc29ydGluZ251bWJlci05ZWMxZjg0NS0wODU2LTU5ZmUtOWZmMy1kYTU0NzM0Y2E3YTgtYXR0ci0xLW5hbWUiIGNsYXNzPSJlciBlbnRpdHlMYWJlbCI+aWQ8L3RleHQ+PHJlY3QgaGVpZ2h0PSIyMiIgd2lkdGg9IjIyLjA4NzY5NTEyMTc2NTEzNyIgeT0iMjMuNjAwMDAwMzgxNDY5NzI3IiB4PSIxMDEuMTU4NzkwNTg4Mzc4OSIgY2xhc3M9ImVyIGF0dHJpYnV0ZUJveE9kZCI+PC9yZWN0Pjx0ZXh0IHN0eWxlPSJkb21pbmFudC1iYXNlbGluZTogbWlkZGxlOyBmb250LXNpemU6IDEwLjJweDsiIHRyYW5zZm9ybT0idHJhbnNsYXRlKDEwNi4xNTg3OTA1ODgzNzg5LDM0LjYwMDAwMDM4MTQ2OTczKSIgeT0iMCIgeD0iMCIgaWQ9InRleHQtZW50aXR5LXNvcnRpbmdudW1iZXItOWVjMWY4NDUtMDg1Ni01OWZlLTlmZjMtZGE1NDczNGNhN2E4LWF0dHItMS1rZXkiIGNsYXNzPSJlciBlbnRpdHlMYWJlbCI+UEs8L3RleHQ+PHJlY3QgaGVpZ2h0PSIyMiIgd2lkdGg9IjQzLjMxMjU5OTE4MjEyODkwNiIgeT0iNDUuNjAwMDAwMzgxNDY5NzMiIHg9IjAiIGNsYXNzPSJlciBhdHRyaWJ1dGVCb3hFdmVuIj48L3JlY3Q+PHRleHQgc3R5bGU9ImRvbWluYW50LWJhc2VsaW5lOiBtaWRkbGU7IGZvbnQtc2l6ZTogMTAuMnB4OyIgdHJhbnNmb3JtPSJ0cmFuc2xhdGUoNSw1Ni42MDAwMDAzODE0Njk3MykiIHk9IjAiIHg9IjAiIGlkPSJ0ZXh0LWVudGl0eS1zb3J0aW5nbnVtYmVyLTllYzFmODQ1LTA4NTYtNTlmZS05ZmYzLWRhNTQ3MzRjYTdhOC1hdHRyLTItdHlwZSIgY2xhc3M9ImVyIGVudGl0eUxhYmVsIj5TVFJJTkc8L3RleHQ+PHJlY3QgaGVpZ2h0PSIyMiIgd2lkdGg9IjU3Ljg0NjE5MTQwNjI1IiB5PSI0NS42MDAwMDAzODE0Njk3MyIgeD0iNDMuMzEyNTk5MTgyMTI4OTA2IiBjbGFzcz0iZXIgYXR0cmlidXRlQm94RXZlbiI+PC9yZWN0Pjx0ZXh0IHN0eWxlPSJkb21pbmFudC1iYXNlbGluZTogbWlkZGxlOyBmb250LXNpemU6IDEwLjJweDsiIHRyYW5zZm9ybT0idHJhbnNsYXRlKDQ4LjMxMjU5OTE4MjEyODkwNiw1Ni42MDAwMDAzODE0Njk3MykiIHk9IjAiIHg9IjAiIGlkPSJ0ZXh0LWVudGl0eS1zb3J0aW5nbnVtYmVyLTllYzFmODQ1LTA4NTYtNTlmZS05ZmYzLWRhNTQ3MzRjYTdhOC1hdHRyLTItbmFtZSIgY2xhc3M9ImVyIGVudGl0eUxhYmVsIj5jYXRlZ29yaWVzPC90ZXh0PjxyZWN0IGhlaWdodD0iMjIiIHdpZHRoPSIyMi4wODc2OTUxMjE3NjUxMzciIHk9IjQ1LjYwMDAwMDM4MTQ2OTczIiB4PSIxMDEuMTU4NzkwNTg4Mzc4OSIgY2xhc3M9ImVyIGF0dHJpYnV0ZUJveEV2ZW4iPjwvcmVjdD48dGV4dCBzdHlsZT0iZG9taW5hbnQtYmFzZWxpbmU6IG1pZGRsZTsgZm9udC1zaXplOiAxMC4ycHg7IiB0cmFuc2Zvcm09InRyYW5zbGF0ZSgxMDYuMTU4NzkwNTg4Mzc4OSw1Ni42MDAwMDAzODE0Njk3MykiIHk9IjAiIHg9IjAiIGlkPSJ0ZXh0LWVudGl0eS1zb3J0aW5nbnVtYmVyLTllYzFmODQ1LTA4NTYtNTlmZS05ZmYzLWRhNTQ3MzRjYTdhOC1hdHRyLTIta2V5IiBjbGFzcz0iZXIgZW50aXR5TGFiZWwiPjwvdGV4dD48L2c+PGcgdHJhbnNmb3JtPSJ0cmFuc2xhdGUoMjAsMzk5LjE5OTk5Njk0ODI0MjIgKSIgaWQ9ImVudGl0eS1zb3J0aW5ndHJhbnNsYXRpb24tN2IzOWI0ZmUtZWZjYi01OGZkLWFhMDYtZmFhZDgxMDA4NTg5Ij48cmVjdCBoZWlnaHQ9IjEzMy42MDAwMDAzODE0Njk3MyIgd2lkdGg9IjE1NS4zODc3OTczNTU2NTE4NiIgeT0iMCIgeD0iMCIgY2xhc3M9ImVyIGVudGl0eUJveCI+PC9yZWN0Pjx0ZXh0IHN0eWxlPSJkb21pbmFudC1iYXNlbGluZTogbWlkZGxlOyB0ZXh0LWFuY2hvcjogbWlkZGxlOyBmb250LXNpemU6IDEycHg7IiB0cmFuc2Zvcm09InRyYW5zbGF0ZSg3Ny42OTM4OTg2Nzc4MjU5MywxMS44MDAwMDAxOTA3MzQ4NjMpIiB5PSIwIiB4PSIwIiBpZD0idGV4dC1lbnRpdHktc29ydGluZ3RyYW5zbGF0aW9uLTdiMzliNGZlLWVmY2ItNThmZC1hYTA2LWZhYWQ4MTAwODU4OSIgY2xhc3M9ImVyIGVudGl0eUxhYmVsIj5zb3J0aW5nX3RyYW5zbGF0aW9uPC90ZXh0PjxyZWN0IGhlaWdodD0iMjIiIHdpZHRoPSI0My4zMTI1OTkxODIxMjg5MDYiIHk9IjIzLjYwMDAwMDM4MTQ2OTcyNyIgeD0iMCIgY2xhc3M9ImVyIGF0dHJpYnV0ZUJveE9kZCI+PC9yZWN0Pjx0ZXh0IHN0eWxlPSJkb21pbmFudC1iYXNlbGluZTogbWlkZGxlOyBmb250LXNpemU6IDEwLjJweDsiIHRyYW5zZm9ybT0idHJhbnNsYXRlKDUsMzQuNjAwMDAwMzgxNDY5NzMpIiB5PSIwIiB4PSIwIiBpZD0idGV4dC1lbnRpdHktc29ydGluZ3RyYW5zbGF0aW9uLTdiMzliNGZlLWVmY2ItNThmZC1hYTA2LWZhYWQ4MTAwODU4OS1hdHRyLTEtdHlwZSIgY2xhc3M9ImVyIGVudGl0eUxhYmVsIj5JTlQ8L3RleHQ+PHJlY3QgaGVpZ2h0PSIyMiIgd2lkdGg9Ijg5Ljk4NzUwMzA1MTc1NzgxIiB5PSIyMy42MDAwMDAzODE0Njk3MjciIHg9IjQzLjMxMjU5OTE4MjEyODkwNiIgY2xhc3M9ImVyIGF0dHJpYnV0ZUJveE9kZCI+PC9yZWN0Pjx0ZXh0IHN0eWxlPSJkb21pbmFudC1iYXNlbGluZTogbWlkZGxlOyBmb250LXNpemU6IDEwLjJweDsiIHRyYW5zZm9ybT0idHJhbnNsYXRlKDQ4LjMxMjU5OTE4MjEyODkwNiwzNC42MDAwMDAzODE0Njk3MykiIHk9IjAiIHg9IjAiIGlkPSJ0ZXh0LWVudGl0eS1zb3J0aW5ndHJhbnNsYXRpb24tN2IzOWI0ZmUtZWZjYi01OGZkLWFhMDYtZmFhZDgxMDA4NTg5LWF0dHItMS1uYW1lIiBjbGFzcz0iZXIgZW50aXR5TGFiZWwiPmlkPC90ZXh0PjxyZWN0IGhlaWdodD0iMjIiIHdpZHRoPSIyMi4wODc2OTUxMjE3NjUxMzciIHk9IjIzLjYwMDAwMDM4MTQ2OTcyNyIgeD0iMTMzLjMwMDEwMjIzMzg4NjcyIiBjbGFzcz0iZXIgYXR0cmlidXRlQm94T2RkIj48L3JlY3Q+PHRleHQgc3R5bGU9ImRvbWluYW50LWJhc2VsaW5lOiBtaWRkbGU7IGZvbnQtc2l6ZTogMTAuMnB4OyIgdHJhbnNmb3JtPSJ0cmFuc2xhdGUoMTM4LjMwMDEwMjIzMzg4NjcyLDM0LjYwMDAwMDM4MTQ2OTczKSIgeT0iMCIgeD0iMCIgaWQ9InRleHQtZW50aXR5LXNvcnRpbmd0cmFuc2xhdGlvbi03YjM5YjRmZS1lZmNiLTU4ZmQtYWEwNi1mYWFkODEwMDg1ODktYXR0ci0xLWtleSIgY2xhc3M9ImVyIGVudGl0eUxhYmVsIj5QSzwvdGV4dD48cmVjdCBoZWlnaHQ9IjIyIiB3aWR0aD0iNDMuMzEyNTk5MTgyMTI4OTA2IiB5PSI0NS42MDAwMDAzODE0Njk3MyIgeD0iMCIgY2xhc3M9ImVyIGF0dHJpYnV0ZUJveEV2ZW4iPjwvcmVjdD48dGV4dCBzdHlsZT0iZG9taW5hbnQtYmFzZWxpbmU6IG1pZGRsZTsgZm9udC1zaXplOiAxMC4ycHg7IiB0cmFuc2Zvcm09InRyYW5zbGF0ZSg1LDU2LjYwMDAwMDM4MTQ2OTczKSIgeT0iMCIgeD0iMCIgaWQ9InRleHQtZW50aXR5LXNvcnRpbmd0cmFuc2xhdGlvbi03YjM5YjRmZS1lZmNiLTU4ZmQtYWEwNi1mYWFkODEwMDg1ODktYXR0ci0yLXR5cGUiIGNsYXNzPSJlciBlbnRpdHlMYWJlbCI+SU5UPC90ZXh0PjxyZWN0IGhlaWdodD0iMjIiIHdpZHRoPSI4OS45ODc1MDMwNTE3NTc4MSIgeT0iNDUuNjAwMDAwMzgxNDY5NzMiIHg9IjQzLjMxMjU5OTE4MjEyODkwNiIgY2xhc3M9ImVyIGF0dHJpYnV0ZUJveEV2ZW4iPjwvcmVjdD48dGV4dCBzdHlsZT0iZG9taW5hbnQtYmFzZWxpbmU6IG1pZGRsZTsgZm9udC1zaXplOiAxMC4ycHg7IiB0cmFuc2Zvcm09InRyYW5zbGF0ZSg0OC4zMTI1OTkxODIxMjg5MDYsNTYuNjAwMDAwMzgxNDY5NzMpIiB5PSIwIiB4PSIwIiBpZD0idGV4dC1lbnRpdHktc29ydGluZ3RyYW5zbGF0aW9uLTdiMzliNGZlLWVmY2ItNThmZC1hYTA2LWZhYWQ4MTAwODU4OS1hdHRyLTItbmFtZSIgY2xhc3M9ImVyIGVudGl0eUxhYmVsIj5zb3J0aW5nbnVtYmVyX2lkPC90ZXh0PjxyZWN0IGhlaWdodD0iMjIiIHdpZHRoPSIyMi4wODc2OTUxMjE3NjUxMzciIHk9IjQ1LjYwMDAwMDM4MTQ2OTczIiB4PSIxMzMuMzAwMTAyMjMzODg2NzIiIGNsYXNzPSJlciBhdHRyaWJ1dGVCb3hFdmVuIj48L3JlY3Q+PHRleHQgc3R5bGU9ImRvbWluYW50LWJhc2VsaW5lOiBtaWRkbGU7IGZvbnQtc2l6ZTogMTAuMnB4OyIgdHJhbnNmb3JtPSJ0cmFuc2xhdGUoMTM4LjMwMDEwMjIzMzg4NjcyLDU2LjYwMDAwMDM4MTQ2OTczKSIgeT0iMCIgeD0iMCIgaWQ9InRleHQtZW50aXR5LXNvcnRpbmd0cmFuc2xhdGlvbi03YjM5YjRmZS1lZmNiLTU4ZmQtYWEwNi1mYWFkODEwMDg1ODktYXR0ci0yLWtleSIgY2xhc3M9ImVyIGVudGl0eUxhYmVsIj5GSzwvdGV4dD48cmVjdCBoZWlnaHQ9IjIyIiB3aWR0aD0iNDMuMzEyNTk5MTgyMTI4OTA2IiB5PSI2Ny42MDAwMDAzODE0Njk3MyIgeD0iMCIgY2xhc3M9ImVyIGF0dHJpYnV0ZUJveE9kZCI+PC9yZWN0Pjx0ZXh0IHN0eWxlPSJkb21pbmFudC1iYXNlbGluZTogbWlkZGxlOyBmb250LXNpemU6IDEwLjJweDsiIHRyYW5zZm9ybT0idHJhbnNsYXRlKDUsNzguNjAwMDAwMzgxNDY5NzMpIiB5PSIwIiB4PSIwIiBpZD0idGV4dC1lbnRpdHktc29ydGluZ3RyYW5zbGF0aW9uLTdiMzliNGZlLWVmY2ItNThmZC1hYTA2LWZhYWQ4MTAwODU4OS1hdHRyLTMtdHlwZSIgY2xhc3M9ImVyIGVudGl0eUxhYmVsIj5TVFJJTkc8L3RleHQ+PHJlY3QgaGVpZ2h0PSIyMiIgd2lkdGg9Ijg5Ljk4NzUwMzA1MTc1NzgxIiB5PSI2Ny42MDAwMDAzODE0Njk3MyIgeD0iNDMuMzEyNTk5MTgyMTI4OTA2IiBjbGFzcz0iZXIgYXR0cmlidXRlQm94T2RkIj48L3JlY3Q+PHRleHQgc3R5bGU9ImRvbWluYW50LWJhc2VsaW5lOiBtaWRkbGU7IGZvbnQtc2l6ZTogMTAuMnB4OyIgdHJhbnNmb3JtPSJ0cmFuc2xhdGUoNDguMzEyNTk5MTgyMTI4OTA2LDc4LjYwMDAwMDM4MTQ2OTczKSIgeT0iMCIgeD0iMCIgaWQ9InRleHQtZW50aXR5LXNvcnRpbmd0cmFuc2xhdGlvbi03YjM5YjRmZS1lZmNiLTU4ZmQtYWEwNi1mYWFkODEwMDg1ODktYXR0ci0zLW5hbWUiIGNsYXNzPSJlciBlbnRpdHlMYWJlbCI+anA8L3RleHQ+PHJlY3QgaGVpZ2h0PSIyMiIgd2lkdGg9IjIyLjA4NzY5NTEyMTc2NTEzNyIgeT0iNjcuNjAwMDAwMzgxNDY5NzMiIHg9IjEzMy4zMDAxMDIyMzM4ODY3MiIgY2xhc3M9ImVyIGF0dHJpYnV0ZUJveE9kZCI+PC9yZWN0Pjx0ZXh0IHN0eWxlPSJkb21pbmFudC1iYXNlbGluZTogbWlkZGxlOyBmb250LXNpemU6IDEwLjJweDsiIHRyYW5zZm9ybT0idHJhbnNsYXRlKDEzOC4zMDAxMDIyMzM4ODY3Miw3OC42MDAwMDAzODE0Njk3MykiIHk9IjAiIHg9IjAiIGlkPSJ0ZXh0LWVudGl0eS1zb3J0aW5ndHJhbnNsYXRpb24tN2IzOWI0ZmUtZWZjYi01OGZkLWFhMDYtZmFhZDgxMDA4NTg5LWF0dHItMy1rZXkiIGNsYXNzPSJlciBlbnRpdHlMYWJlbCI+PC90ZXh0PjxyZWN0IGhlaWdodD0iMjIiIHdpZHRoPSI0My4zMTI1OTkxODIxMjg5MDYiIHk9Ijg5LjYwMDAwMDM4MTQ2OTczIiB4PSIwIiBjbGFzcz0iZXIgYXR0cmlidXRlQm94RXZlbiI+PC9yZWN0Pjx0ZXh0IHN0eWxlPSJkb21pbmFudC1iYXNlbGluZTogbWlkZGxlOyBmb250LXNpemU6IDEwLjJweDsiIHRyYW5zZm9ybT0idHJhbnNsYXRlKDUsMTAwLjYwMDAwMDM4MTQ2OTczKSIgeT0iMCIgeD0iMCIgaWQ9InRleHQtZW50aXR5LXNvcnRpbmd0cmFuc2xhdGlvbi03YjM5YjRmZS1lZmNiLTU4ZmQtYWEwNi1mYWFkODEwMDg1ODktYXR0ci00LXR5cGUiIGNsYXNzPSJlciBlbnRpdHlMYWJlbCI+U1RSSU5HPC90ZXh0PjxyZWN0IGhlaWdodD0iMjIiIHdpZHRoPSI4OS45ODc1MDMwNTE3NTc4MSIgeT0iODkuNjAwMDAwMzgxNDY5NzMiIHg9IjQzLjMxMjU5OTE4MjEyODkwNiIgY2xhc3M9ImVyIGF0dHJpYnV0ZUJveEV2ZW4iPjwvcmVjdD48dGV4dCBzdHlsZT0iZG9taW5hbnQtYmFzZWxpbmU6IG1pZGRsZTsgZm9udC1zaXplOiAxMC4ycHg7IiB0cmFuc2Zvcm09InRyYW5zbGF0ZSg0OC4zMTI1OTkxODIxMjg5MDYsMTAwLjYwMDAwMDM4MTQ2OTczKSIgeT0iMCIgeD0iMCIgaWQ9InRleHQtZW50aXR5LXNvcnRpbmd0cmFuc2xhdGlvbi03YjM5YjRmZS1lZmNiLTU4ZmQtYWEwNi1mYWFkODEwMDg1ODktYXR0ci00LW5hbWUiIGNsYXNzPSJlciBlbnRpdHlMYWJlbCI+ZW48L3RleHQ+PHJlY3QgaGVpZ2h0PSIyMiIgd2lkdGg9IjIyLjA4NzY5NTEyMTc2NTEzNyIgeT0iODkuNjAwMDAwMzgxNDY5NzMiIHg9IjEzMy4zMDAxMDIyMzM4ODY3MiIgY2xhc3M9ImVyIGF0dHJpYnV0ZUJveEV2ZW4iPjwvcmVjdD48dGV4dCBzdHlsZT0iZG9taW5hbnQtYmFzZWxpbmU6IG1pZGRsZTsgZm9udC1zaXplOiAxMC4ycHg7IiB0cmFuc2Zvcm09InRyYW5zbGF0ZSgxMzguMzAwMTAyMjMzODg2NzIsMTAwLjYwMDAwMDM4MTQ2OTczKSIgeT0iMCIgeD0iMCIgaWQ9InRleHQtZW50aXR5LXNvcnRpbmd0cmFuc2xhdGlvbi03YjM5YjRmZS1lZmNiLTU4ZmQtYWEwNi1mYWFkODEwMDg1ODktYXR0ci00LWtleSIgY2xhc3M9ImVyIGVudGl0eUxhYmVsIj48L3RleHQ+PHJlY3QgaGVpZ2h0PSIyMiIgd2lkdGg9IjQzLjMxMjU5OTE4MjEyODkwNiIgeT0iMTExLjYwMDAwMDM4MTQ2OTczIiB4PSIwIiBjbGFzcz0iZXIgYXR0cmlidXRlQm94T2RkIj48L3JlY3Q+PHRleHQgc3R5bGU9ImRvbWluYW50LWJhc2VsaW5lOiBtaWRkbGU7IGZvbnQtc2l6ZTogMTAuMnB4OyIgdHJhbnNmb3JtPSJ0cmFuc2xhdGUoNSwxMjIuNjAwMDAwMzgxNDY5NzMpIiB5PSIwIiB4PSIwIiBpZD0idGV4dC1lbnRpdHktc29ydGluZ3RyYW5zbGF0aW9uLTdiMzliNGZlLWVmY2ItNThmZC1hYTA2LWZhYWQ4MTAwODU4OS1hdHRyLTUtdHlwZSIgY2xhc3M9ImVyIGVudGl0eUxhYmVsIj5TVFJJTkc8L3RleHQ+PHJlY3QgaGVpZ2h0PSIyMiIgd2lkdGg9Ijg5Ljk4NzUwMzA1MTc1NzgxIiB5PSIxMTEuNjAwMDAwMzgxNDY5NzMiIHg9IjQzLjMxMjU5OTE4MjEyODkwNiIgY2xhc3M9ImVyIGF0dHJpYnV0ZUJveE9kZCI+PC9yZWN0Pjx0ZXh0IHN0eWxlPSJkb21pbmFudC1iYXNlbGluZTogbWlkZGxlOyBmb250LXNpemU6IDEwLjJweDsiIHRyYW5zZm9ybT0idHJhbnNsYXRlKDQ4LjMxMjU5OTE4MjEyODkwNiwxMjIuNjAwMDAwMzgxNDY5NzMpIiB5PSIwIiB4PSIwIiBpZD0idGV4dC1lbnRpdHktc29ydGluZ3RyYW5zbGF0aW9uLTdiMzliNGZlLWVmY2ItNThmZC1hYTA2LWZhYWQ4MTAwODU4OS1hdHRyLTUtbmFtZSIgY2xhc3M9ImVyIGVudGl0eUxhYmVsIj56aDwvdGV4dD48cmVjdCBoZWlnaHQ9IjIyIiB3aWR0aD0iMjIuMDg3Njk1MTIxNzY1MTM3IiB5PSIxMTEuNjAwMDAwMzgxNDY5NzMiIHg9IjEzMy4zMDAxMDIyMzM4ODY3MiIgY2xhc3M9ImVyIGF0dHJpYnV0ZUJveE9kZCI+PC9yZWN0Pjx0ZXh0IHN0eWxlPSJkb21pbmFudC1iYXNlbGluZTogbWlkZGxlOyBmb250LXNpemU6IDEwLjJweDsiIHRyYW5zZm9ybT0idHJhbnNsYXRlKDEzOC4zMDAxMDIyMzM4ODY3MiwxMjIuNjAwMDAwMzgxNDY5NzMpIiB5PSIwIiB4PSIwIiBpZD0idGV4dC1lbnRpdHktc29ydGluZ3RyYW5zbGF0aW9uLTdiMzliNGZlLWVmY2ItNThmZC1hYTA2LWZhYWQ4MTAwODU4OS1hdHRyLTUta2V5IiBjbGFzcz0iZXIgZW50aXR5TGFiZWwiPjwvdGV4dD48L2c+PGcgdHJhbnNmb3JtPSJ0cmFuc2xhdGUoNDc0LjAxODY5OTY0NTk5NjEsMjA5LjU5OTk5ODQ3NDEyMTEgKSIgaWQ9ImVudGl0eS1zYXBwb3JvY2l0eWFyZWEtYzQxOWY4OGItNTg5Yi01YzJhLTk3MWEtNzk5ZjdiMWJhNDEyIj48cmVjdCBoZWlnaHQ9Ijg5LjYwMDAwMDM4MTQ2OTczIiB3aWR0aD0iMTI4LjYxNDg0NTI3NTg3ODkiIHk9IjAiIHg9IjAiIGNsYXNzPSJlciBlbnRpdHlCb3giPjwvcmVjdD48dGV4dCBzdHlsZT0iZG9taW5hbnQtYmFzZWxpbmU6IG1pZGRsZTsgdGV4dC1hbmNob3I6IG1pZGRsZTsgZm9udC1zaXplOiAxMnB4OyIgdHJhbnNmb3JtPSJ0cmFuc2xhdGUoNjQuMzA3NDIyNjM3OTM5NDUsMTEuODAwMDAwMTkwNzM0ODYzKSIgeT0iMCIgeD0iMCIgaWQ9InRleHQtZW50aXR5LXNhcHBvcm9jaXR5YXJlYS1jNDE5Zjg4Yi01ODliLTVjMmEtOTcxYS03OTlmN2IxYmE0MTIiIGNsYXNzPSJlciBlbnRpdHlMYWJlbCI+c2FwcG9yb19jaXR5X2FyZWE8L3RleHQ+PHJlY3QgaGVpZ2h0PSIyMiIgd2lkdGg9IjQ4LjYwNDk0ODk5NzQ5NzU2IiB5PSIyMy42MDAwMDAzODE0Njk3MjciIHg9IjAiIGNsYXNzPSJlciBhdHRyaWJ1dGVCb3hPZGQiPjwvcmVjdD48dGV4dCBzdHlsZT0iZG9taW5hbnQtYmFzZWxpbmU6IG1pZGRsZTsgZm9udC1zaXplOiAxMC4ycHg7IiB0cmFuc2Zvcm09InRyYW5zbGF0ZSg1LDM0LjYwMDAwMDM4MTQ2OTczKSIgeT0iMCIgeD0iMCIgaWQ9InRleHQtZW50aXR5LXNhcHBvcm9jaXR5YXJlYS1jNDE5Zjg4Yi01ODliLTVjMmEtOTcxYS03OTlmN2IxYmE0MTItYXR0ci0xLXR5cGUiIGNsYXNzPSJlciBlbnRpdHlMYWJlbCI+SU5UPC90ZXh0PjxyZWN0IGhlaWdodD0iMjIiIHdpZHRoPSI1Mi42Mjk4NTEzNDEyNDc1NiIgeT0iMjMuNjAwMDAwMzgxNDY5NzI3IiB4PSI0OC42MDQ5NDg5OTc0OTc1NiIgY2xhc3M9ImVyIGF0dHJpYnV0ZUJveE9kZCI+PC9yZWN0Pjx0ZXh0IHN0eWxlPSJkb21pbmFudC1iYXNlbGluZTogbWlkZGxlOyBmb250LXNpemU6IDEwLjJweDsiIHRyYW5zZm9ybT0idHJhbnNsYXRlKDUzLjYwNDk0ODk5NzQ5NzU2LDM0LjYwMDAwMDM4MTQ2OTczKSIgeT0iMCIgeD0iMCIgaWQ9InRleHQtZW50aXR5LXNhcHBvcm9jaXR5YXJlYS1jNDE5Zjg4Yi01ODliLTVjMmEtOTcxYS03OTlmN2IxYmE0MTItYXR0ci0xLW5hbWUiIGNsYXNzPSJlciBlbnRpdHlMYWJlbCI+aWQ8L3RleHQ+PHJlY3QgaGVpZ2h0PSIyMiIgd2lkdGg9IjI3LjM4MDA0NDkzNzEzMzc5IiB5PSIyMy42MDAwMDAzODE0Njk3MjciIHg9IjEwMS4yMzQ4MDAzMzg3NDUxMiIgY2xhc3M9ImVyIGF0dHJpYnV0ZUJveE9kZCI+PC9yZWN0Pjx0ZXh0IHN0eWxlPSJkb21pbmFudC1iYXNlbGluZTogbWlkZGxlOyBmb250LXNpemU6IDEwLjJweDsiIHRyYW5zZm9ybT0idHJhbnNsYXRlKDEwNi4yMzQ4MDAzMzg3NDUxMiwzNC42MDAwMDAzODE0Njk3MykiIHk9IjAiIHg9IjAiIGlkPSJ0ZXh0LWVudGl0eS1zYXBwb3JvY2l0eWFyZWEtYzQxOWY4OGItNTg5Yi01YzJhLTk3MWEtNzk5ZjdiMWJhNDEyLWF0dHItMS1rZXkiIGNsYXNzPSJlciBlbnRpdHlMYWJlbCI+UEs8L3RleHQ+PHJlY3QgaGVpZ2h0PSIyMiIgd2lkdGg9IjQ4LjYwNDk0ODk5NzQ5NzU2IiB5PSI0NS42MDAwMDAzODE0Njk3MyIgeD0iMCIgY2xhc3M9ImVyIGF0dHJpYnV0ZUJveEV2ZW4iPjwvcmVjdD48dGV4dCBzdHlsZT0iZG9taW5hbnQtYmFzZWxpbmU6IG1pZGRsZTsgZm9udC1zaXplOiAxMC4ycHg7IiB0cmFuc2Zvcm09InRyYW5zbGF0ZSg1LDU2LjYwMDAwMDM4MTQ2OTczKSIgeT0iMCIgeD0iMCIgaWQ9InRleHQtZW50aXR5LXNhcHBvcm9jaXR5YXJlYS1jNDE5Zjg4Yi01ODliLTVjMmEtOTcxYS03OTlmN2IxYmE0MTItYXR0ci0yLXR5cGUiIGNsYXNzPSJlciBlbnRpdHlMYWJlbCI+U1RSSU5HPC90ZXh0PjxyZWN0IGhlaWdodD0iMjIiIHdpZHRoPSI1Mi42Mjk4NTEzNDEyNDc1NiIgeT0iNDUuNjAwMDAwMzgxNDY5NzMiIHg9IjQ4LjYwNDk0ODk5NzQ5NzU2IiBjbGFzcz0iZXIgYXR0cmlidXRlQm94RXZlbiI+PC9yZWN0Pjx0ZXh0IHN0eWxlPSJkb21pbmFudC1iYXNlbGluZTogbWlkZGxlOyBmb250LXNpemU6IDEwLjJweDsiIHRyYW5zZm9ybT0idHJhbnNsYXRlKDUzLjYwNDk0ODk5NzQ5NzU2LDU2LjYwMDAwMDM4MTQ2OTczKSIgeT0iMCIgeD0iMCIgaWQ9InRleHQtZW50aXR5LXNhcHBvcm9jaXR5YXJlYS1jNDE5Zjg4Yi01ODliLTVjMmEtOTcxYS03OTlmN2IxYmE0MTItYXR0ci0yLW5hbWUiIGNsYXNzPSJlciBlbnRpdHlMYWJlbCI+YXJlYTwvdGV4dD48cmVjdCBoZWlnaHQ9IjIyIiB3aWR0aD0iMjcuMzgwMDQ0OTM3MTMzNzkiIHk9IjQ1LjYwMDAwMDM4MTQ2OTczIiB4PSIxMDEuMjM0ODAwMzM4NzQ1MTIiIGNsYXNzPSJlciBhdHRyaWJ1dGVCb3hFdmVuIj48L3JlY3Q+PHRleHQgc3R5bGU9ImRvbWluYW50LWJhc2VsaW5lOiBtaWRkbGU7IGZvbnQtc2l6ZTogMTAuMnB4OyIgdHJhbnNmb3JtPSJ0cmFuc2xhdGUoMTA2LjIzNDgwMDMzODc0NTEyLDU2LjYwMDAwMDM4MTQ2OTczKSIgeT0iMCIgeD0iMCIgaWQ9InRleHQtZW50aXR5LXNhcHBvcm9jaXR5YXJlYS1jNDE5Zjg4Yi01ODliLTVjMmEtOTcxYS03OTlmN2IxYmE0MTItYXR0ci0yLWtleSIgY2xhc3M9ImVyIGVudGl0eUxhYmVsIj48L3RleHQ+PHJlY3QgaGVpZ2h0PSIyMiIgd2lkdGg9IjQ4LjYwNDk0ODk5NzQ5NzU2IiB5PSI2Ny42MDAwMDAzODE0Njk3MyIgeD0iMCIgY2xhc3M9ImVyIGF0dHJpYnV0ZUJveE9kZCI+PC9yZWN0Pjx0ZXh0IHN0eWxlPSJkb21pbmFudC1iYXNlbGluZTogbWlkZGxlOyBmb250LXNpemU6IDEwLjJweDsiIHRyYW5zZm9ybT0idHJhbnNsYXRlKDUsNzguNjAwMDAwMzgxNDY5NzMpIiB5PSIwIiB4PSIwIiBpZD0idGV4dC1lbnRpdHktc2FwcG9yb2NpdHlhcmVhLWM0MTlmODhiLTU4OWItNWMyYS05NzFhLTc5OWY3YjFiYTQxMi1hdHRyLTMtdHlwZSIgY2xhc3M9ImVyIGVudGl0eUxhYmVsIj5JTlQ8L3RleHQ+PHJlY3QgaGVpZ2h0PSIyMiIgd2lkdGg9IjUyLjYyOTg1MTM0MTI0NzU2IiB5PSI2Ny42MDAwMDAzODE0Njk3MyIgeD0iNDguNjA0OTQ4OTk3NDk3NTYiIGNsYXNzPSJlciBhdHRyaWJ1dGVCb3hPZGQiPjwvcmVjdD48dGV4dCBzdHlsZT0iZG9taW5hbnQtYmFzZWxpbmU6IG1pZGRsZTsgZm9udC1zaXplOiAxMC4ycHg7IiB0cmFuc2Zvcm09InRyYW5zbGF0ZSg1My42MDQ5NDg5OTc0OTc1Niw3OC42MDAwMDAzODE0Njk3MykiIHk9IjAiIHg9IjAiIGlkPSJ0ZXh0LWVudGl0eS1zYXBwb3JvY2l0eWFyZWEtYzQxOWY4OGItNTg5Yi01YzJhLTk3MWEtNzk5ZjdiMWJhNDEyLWF0dHItMy1uYW1lIiBjbGFzcz0iZXIgZW50aXR5TGFiZWwiPndhcmRfaWQ8L3RleHQ+PHJlY3QgaGVpZ2h0PSIyMiIgd2lkdGg9IjI3LjM4MDA0NDkzNzEzMzc5IiB5PSI2Ny42MDAwMDAzODE0Njk3MyIgeD0iMTAxLjIzNDgwMDMzODc0NTEyIiBjbGFzcz0iZXIgYXR0cmlidXRlQm94T2RkIj48L3JlY3Q+PHRleHQgc3R5bGU9ImRvbWluYW50LWJhc2VsaW5lOiBtaWRkbGU7IGZvbnQtc2l6ZTogMTAuMnB4OyIgdHJhbnNmb3JtPSJ0cmFuc2xhdGUoMTA2LjIzNDgwMDMzODc0NTEyLDc4LjYwMDAwMDM4MTQ2OTczKSIgeT0iMCIgeD0iMCIgaWQ9InRleHQtZW50aXR5LXNhcHBvcm9jaXR5YXJlYS1jNDE5Zjg4Yi01ODliLTVjMmEtOTcxYS03OTlmN2IxYmE0MTItYXR0ci0zLWtleSIgY2xhc3M9ImVyIGVudGl0eUxhYmVsIj5GSzwvdGV4dD48L2c+PGcgdHJhbnNmb3JtPSJ0cmFuc2xhdGUoMjc1LjM4Nzc4Njg2NTIzNDQsNDEwLjIwMDAwMDc2MjkzOTQ1ICkiIGlkPSJlbnRpdHktYXJlYXppcGNvZGUtMmNjNGI2N2ItNGZlNS01ZjAyLWFjNjQtNWMxYTMwYWVlY2FiIj48cmVjdCBoZWlnaHQ9IjExMS42MDAwMDAzODE0Njk3MyIgd2lkdGg9IjExMS40MzkwNjMwNzIyMDQ1OSIgeT0iMCIgeD0iMCIgY2xhc3M9ImVyIGVudGl0eUJveCI+PC9yZWN0Pjx0ZXh0IHN0eWxlPSJkb21pbmFudC1iYXNlbGluZTogbWlkZGxlOyB0ZXh0LWFuY2hvcjogbWlkZGxlOyBmb250LXNpemU6IDEycHg7IiB0cmFuc2Zvcm09InRyYW5zbGF0ZSg1NS43MTk1MzE1MzYxMDIyOTUsMTEuODAwMDAwMTkwNzM0ODYzKSIgeT0iMCIgeD0iMCIgaWQ9InRleHQtZW50aXR5LWFyZWF6aXBjb2RlLTJjYzRiNjdiLTRmZTUtNWYwMi1hYzY0LTVjMWEzMGFlZWNhYiIgY2xhc3M9ImVyIGVudGl0eUxhYmVsIj5hcmVhX3ppcGNvZGU8L3RleHQ+PHJlY3QgaGVpZ2h0PSIyMiIgd2lkdGg9IjQzLjMxMjU5OTE4MjEyODkwNiIgeT0iMjMuNjAwMDAwMzgxNDY5NzI3IiB4PSIwIiBjbGFzcz0iZXIgYXR0cmlidXRlQm94T2RkIj48L3JlY3Q+PHRleHQgc3R5bGU9ImRvbWluYW50LWJhc2VsaW5lOiBtaWRkbGU7IGZvbnQtc2l6ZTogMTAuMnB4OyIgdHJhbnNmb3JtPSJ0cmFuc2xhdGUoNSwzNC42MDAwMDAzODE0Njk3MykiIHk9IjAiIHg9IjAiIGlkPSJ0ZXh0LWVudGl0eS1hcmVhemlwY29kZS0yY2M0YjY3Yi00ZmU1LTVmMDItYWM2NC01YzFhMzBhZWVjYWItYXR0ci0xLXR5cGUiIGNsYXNzPSJlciBlbnRpdHlMYWJlbCI+SU5UPC90ZXh0PjxyZWN0IGhlaWdodD0iMjIiIHdpZHRoPSI0Ni4wMzg3Njg3NjgzMTA1NSIgeT0iMjMuNjAwMDAwMzgxNDY5NzI3IiB4PSI0My4zMTI1OTkxODIxMjg5MDYiIGNsYXNzPSJlciBhdHRyaWJ1dGVCb3hPZGQiPjwvcmVjdD48dGV4dCBzdHlsZT0iZG9taW5hbnQtYmFzZWxpbmU6IG1pZGRsZTsgZm9udC1zaXplOiAxMC4ycHg7IiB0cmFuc2Zvcm09InRyYW5zbGF0ZSg0OC4zMTI1OTkxODIxMjg5MDYsMzQuNjAwMDAwMzgxNDY5NzMpIiB5PSIwIiB4PSIwIiBpZD0idGV4dC1lbnRpdHktYXJlYXppcGNvZGUtMmNjNGI2N2ItNGZlNS01ZjAyLWFjNjQtNWMxYTMwYWVlY2FiLWF0dHItMS1uYW1lIiBjbGFzcz0iZXIgZW50aXR5TGFiZWwiPmlkPC90ZXh0PjxyZWN0IGhlaWdodD0iMjIiIHdpZHRoPSIyMi4wODc2OTUxMjE3NjUxMzciIHk9IjIzLjYwMDAwMDM4MTQ2OTcyNyIgeD0iODkuMzUxMzY3OTUwNDM5NDUiIGNsYXNzPSJlciBhdHRyaWJ1dGVCb3hPZGQiPjwvcmVjdD48dGV4dCBzdHlsZT0iZG9taW5hbnQtYmFzZWxpbmU6IG1pZGRsZTsgZm9udC1zaXplOiAxMC4ycHg7IiB0cmFuc2Zvcm09InRyYW5zbGF0ZSg5NC4zNTEzNjc5NTA0Mzk0NSwzNC42MDAwMDAzODE0Njk3MykiIHk9IjAiIHg9IjAiIGlkPSJ0ZXh0LWVudGl0eS1hcmVhemlwY29kZS0yY2M0YjY3Yi00ZmU1LTVmMDItYWM2NC01YzFhMzBhZWVjYWItYXR0ci0xLWtleSIgY2xhc3M9ImVyIGVudGl0eUxhYmVsIj5QSzwvdGV4dD48cmVjdCBoZWlnaHQ9IjIyIiB3aWR0aD0iNDMuMzEyNTk5MTgyMTI4OTA2IiB5PSI0NS42MDAwMDAzODE0Njk3MyIgeD0iMCIgY2xhc3M9ImVyIGF0dHJpYnV0ZUJveEV2ZW4iPjwvcmVjdD48dGV4dCBzdHlsZT0iZG9taW5hbnQtYmFzZWxpbmU6IG1pZGRsZTsgZm9udC1zaXplOiAxMC4ycHg7IiB0cmFuc2Zvcm09InRyYW5zbGF0ZSg1LDU2LjYwMDAwMDM4MTQ2OTczKSIgeT0iMCIgeD0iMCIgaWQ9InRleHQtZW50aXR5LWFyZWF6aXBjb2RlLTJjYzRiNjdiLTRmZTUtNWYwMi1hYzY0LTVjMWEzMGFlZWNhYi1hdHRyLTItdHlwZSIgY2xhc3M9ImVyIGVudGl0eUxhYmVsIj5TVFJJTkc8L3RleHQ+PHJlY3QgaGVpZ2h0PSIyMiIgd2lkdGg9IjQ2LjAzODc2ODc2ODMxMDU1IiB5PSI0NS42MDAwMDAzODE0Njk3MyIgeD0iNDMuMzEyNTk5MTgyMTI4OTA2IiBjbGFzcz0iZXIgYXR0cmlidXRlQm94RXZlbiI+PC9yZWN0Pjx0ZXh0IHN0eWxlPSJkb21pbmFudC1iYXNlbGluZTogbWlkZGxlOyBmb250LXNpemU6IDEwLjJweDsiIHRyYW5zZm9ybT0idHJhbnNsYXRlKDQ4LjMxMjU5OTE4MjEyODkwNiw1Ni42MDAwMDAzODE0Njk3MykiIHk9IjAiIHg9IjAiIGlkPSJ0ZXh0LWVudGl0eS1hcmVhemlwY29kZS0yY2M0YjY3Yi00ZmU1LTVmMDItYWM2NC01YzFhMzBhZWVjYWItYXR0ci0yLW5hbWUiIGNsYXNzPSJlciBlbnRpdHlMYWJlbCI+emlwY29kZTwvdGV4dD48cmVjdCBoZWlnaHQ9IjIyIiB3aWR0aD0iMjIuMDg3Njk1MTIxNzY1MTM3IiB5PSI0NS42MDAwMDAzODE0Njk3MyIgeD0iODkuMzUxMzY3OTUwNDM5NDUiIGNsYXNzPSJlciBhdHRyaWJ1dGVCb3hFdmVuIj48L3JlY3Q+PHRleHQgc3R5bGU9ImRvbWluYW50LWJhc2VsaW5lOiBtaWRkbGU7IGZvbnQtc2l6ZTogMTAuMnB4OyIgdHJhbnNmb3JtPSJ0cmFuc2xhdGUoOTQuMzUxMzY3OTUwNDM5NDUsNTYuNjAwMDAwMzgxNDY5NzMpIiB5PSIwIiB4PSIwIiBpZD0idGV4dC1lbnRpdHktYXJlYXppcGNvZGUtMmNjNGI2N2ItNGZlNS01ZjAyLWFjNjQtNWMxYTMwYWVlY2FiLWF0dHItMi1rZXkiIGNsYXNzPSJlciBlbnRpdHlMYWJlbCI+PC90ZXh0PjxyZWN0IGhlaWdodD0iMjIiIHdpZHRoPSI0My4zMTI1OTkxODIxMjg5MDYiIHk9IjY3LjYwMDAwMDM4MTQ2OTczIiB4PSIwIiBjbGFzcz0iZXIgYXR0cmlidXRlQm94T2RkIj48L3JlY3Q+PHRleHQgc3R5bGU9ImRvbWluYW50LWJhc2VsaW5lOiBtaWRkbGU7IGZvbnQtc2l6ZTogMTAuMnB4OyIgdHJhbnNmb3JtPSJ0cmFuc2xhdGUoNSw3OC42MDAwMDAzODE0Njk3MykiIHk9IjAiIHg9IjAiIGlkPSJ0ZXh0LWVudGl0eS1hcmVhemlwY29kZS0yY2M0YjY3Yi00ZmU1LTVmMDItYWM2NC01YzFhMzBhZWVjYWItYXR0ci0zLXR5cGUiIGNsYXNzPSJlciBlbnRpdHlMYWJlbCI+U1RSSU5HPC90ZXh0PjxyZWN0IGhlaWdodD0iMjIiIHdpZHRoPSI0Ni4wMzg3Njg3NjgzMTA1NSIgeT0iNjcuNjAwMDAwMzgxNDY5NzMiIHg9IjQzLjMxMjU5OTE4MjEyODkwNiIgY2xhc3M9ImVyIGF0dHJpYnV0ZUJveE9kZCI+PC9yZWN0Pjx0ZXh0IHN0eWxlPSJkb21pbmFudC1iYXNlbGluZTogbWlkZGxlOyBmb250LXNpemU6IDEwLjJweDsiIHRyYW5zZm9ybT0idHJhbnNsYXRlKDQ4LjMxMjU5OTE4MjEyODkwNiw3OC42MDAwMDAzODE0Njk3MykiIHk9IjAiIHg9IjAiIGlkPSJ0ZXh0LWVudGl0eS1hcmVhemlwY29kZS0yY2M0YjY3Yi00ZmU1LTVmMDItYWM2NC01YzFhMzBhZWVjYWItYXR0ci0zLW5hbWUiIGNsYXNzPSJlciBlbnRpdHlMYWJlbCI+YWRkcmVzczwvdGV4dD48cmVjdCBoZWlnaHQ9IjIyIiB3aWR0aD0iMjIuMDg3Njk1MTIxNzY1MTM3IiB5PSI2Ny42MDAwMDAzODE0Njk3MyIgeD0iODkuMzUxMzY3OTUwNDM5NDUiIGNsYXNzPSJlciBhdHRyaWJ1dGVCb3hPZGQiPjwvcmVjdD48dGV4dCBzdHlsZT0iZG9taW5hbnQtYmFzZWxpbmU6IG1pZGRsZTsgZm9udC1zaXplOiAxMC4ycHg7IiB0cmFuc2Zvcm09InRyYW5zbGF0ZSg5NC4zNTEzNjc5NTA0Mzk0NSw3OC42MDAwMDAzODE0Njk3MykiIHk9IjAiIHg9IjAiIGlkPSJ0ZXh0LWVudGl0eS1hcmVhemlwY29kZS0yY2M0YjY3Yi00ZmU1LTVmMDItYWM2NC01YzFhMzBhZWVjYWItYXR0ci0zLWtleSIgY2xhc3M9ImVyIGVudGl0eUxhYmVsIj48L3RleHQ+PHJlY3QgaGVpZ2h0PSIyMiIgd2lkdGg9IjQzLjMxMjU5OTE4MjEyODkwNiIgeT0iODkuNjAwMDAwMzgxNDY5NzMiIHg9IjAiIGNsYXNzPSJlciBhdHRyaWJ1dGVCb3hFdmVuIj48L3JlY3Q+PHRleHQgc3R5bGU9ImRvbWluYW50LWJhc2VsaW5lOiBtaWRkbGU7IGZvbnQtc2l6ZTogMTAuMnB4OyIgdHJhbnNmb3JtPSJ0cmFuc2xhdGUoNSwxMDAuNjAwMDAwMzgxNDY5NzMpIiB5PSIwIiB4PSIwIiBpZD0idGV4dC1lbnRpdHktYXJlYXppcGNvZGUtMmNjNGI2N2ItNGZlNS01ZjAyLWFjNjQtNWMxYTMwYWVlY2FiLWF0dHItNC10eXBlIiBjbGFzcz0iZXIgZW50aXR5TGFiZWwiPklOVDwvdGV4dD48cmVjdCBoZWlnaHQ9IjIyIiB3aWR0aD0iNDYuMDM4NzY4NzY4MzEwNTUiIHk9Ijg5LjYwMDAwMDM4MTQ2OTczIiB4PSI0My4zMTI1OTkxODIxMjg5MDYiIGNsYXNzPSJlciBhdHRyaWJ1dGVCb3hFdmVuIj48L3JlY3Q+PHRleHQgc3R5bGU9ImRvbWluYW50LWJhc2VsaW5lOiBtaWRkbGU7IGZvbnQtc2l6ZTogMTAuMnB4OyIgdHJhbnNmb3JtPSJ0cmFuc2xhdGUoNDguMzEyNTk5MTgyMTI4OTA2LDEwMC42MDAwMDAzODE0Njk3MykiIHk9IjAiIHg9IjAiIGlkPSJ0ZXh0LWVudGl0eS1hcmVhemlwY29kZS0yY2M0YjY3Yi00ZmU1LTVmMDItYWM2NC01YzFhMzBhZWVjYWItYXR0ci00LW5hbWUiIGNsYXNzPSJlciBlbnRpdHlMYWJlbCI+YXJlYV9pZDwvdGV4dD48cmVjdCBoZWlnaHQ9IjIyIiB3aWR0aD0iMjIuMDg3Njk1MTIxNzY1MTM3IiB5PSI4OS42MDAwMDAzODE0Njk3MyIgeD0iODkuMzUxMzY3OTUwNDM5NDUiIGNsYXNzPSJlciBhdHRyaWJ1dGVCb3hFdmVuIj48L3JlY3Q+PHRleHQgc3R5bGU9ImRvbWluYW50LWJhc2VsaW5lOiBtaWRkbGU7IGZvbnQtc2l6ZTogMTAuMnB4OyIgdHJhbnNmb3JtPSJ0cmFuc2xhdGUoOTQuMzUxMzY3OTUwNDM5NDUsMTAwLjYwMDAwMDM4MTQ2OTczKSIgeT0iMCIgeD0iMCIgaWQ9InRleHQtZW50aXR5LWFyZWF6aXBjb2RlLTJjYzRiNjdiLTRmZTUtNWYwMi1hYzY0LTVjMWEzMGFlZWNhYi1hdHRyLTQta2V5IiBjbGFzcz0iZXIgZW50aXR5TGFiZWwiPkZLPC90ZXh0PjwvZz48ZyB0cmFuc2Zvcm09InRyYW5zbGF0ZSgyNjMuNTc2MDY4ODc4MTczOCw2MzIuODAwMDAzMDUxNzU3OCApIiBpZD0iZW50aXR5LWFkZHJlc3N0cmFuc2xhdGlvbi05NzA3MjczZi00Mjc2LTViYTQtYmU1Ny0xYWMyMzc5YTVjNWEiPjxyZWN0IGhlaWdodD0iMTExLjYwMDAwMDM4MTQ2OTczIiB3aWR0aD0iMTM1LjA2MjUiIHk9IjAiIHg9IjAiIGNsYXNzPSJlciBlbnRpdHlCb3giPjwvcmVjdD48dGV4dCBzdHlsZT0iZG9taW5hbnQtYmFzZWxpbmU6IG1pZGRsZTsgdGV4dC1hbmNob3I6IG1pZGRsZTsgZm9udC1zaXplOiAxMnB4OyIgdHJhbnNmb3JtPSJ0cmFuc2xhdGUoNjcuNTMxMjUsMTEuODAwMDAwMTkwNzM0ODYzKSIgeT0iMCIgeD0iMCIgaWQ9InRleHQtZW50aXR5LWFkZHJlc3N0cmFuc2xhdGlvbi05NzA3MjczZi00Mjc2LTViYTQtYmU1Ny0xYWMyMzc5YTVjNWEiIGNsYXNzPSJlciBlbnRpdHlMYWJlbCI+YWRkcmVzc190cmFuc2xhdGlvbjwvdGV4dD48cmVjdCBoZWlnaHQ9IjIyIiB3aWR0aD0iNDUuNTQxNjY2OTg0NTU4MTA1IiB5PSIyMy42MDAwMDAzODE0Njk3MjciIHg9IjAiIGNsYXNzPSJlciBhdHRyaWJ1dGVCb3hPZGQiPjwvcmVjdD48dGV4dCBzdHlsZT0iZG9taW5hbnQtYmFzZWxpbmU6IG1pZGRsZTsgZm9udC1zaXplOiAxMC4ycHg7IiB0cmFuc2Zvcm09InRyYW5zbGF0ZSg1LDM0LjYwMDAwMDM4MTQ2OTczKSIgeT0iMCIgeD0iMCIgaWQ9InRleHQtZW50aXR5LWFkZHJlc3N0cmFuc2xhdGlvbi05NzA3MjczZi00Mjc2LTViYTQtYmU1Ny0xYWMyMzc5YTVjNWEtYXR0ci0xLXR5cGUiIGNsYXNzPSJlciBlbnRpdHlMYWJlbCI+SU5UPC90ZXh0PjxyZWN0IGhlaWdodD0iMjIiIHdpZHRoPSI2NS4yMDQwNzAwOTEyNDc1NiIgeT0iMjMuNjAwMDAwMzgxNDY5NzI3IiB4PSI0NS41NDE2NjY5ODQ1NTgxMDUiIGNsYXNzPSJlciBhdHRyaWJ1dGVCb3hPZGQiPjwvcmVjdD48dGV4dCBzdHlsZT0iZG9taW5hbnQtYmFzZWxpbmU6IG1pZGRsZTsgZm9udC1zaXplOiAxMC4ycHg7IiB0cmFuc2Zvcm09InRyYW5zbGF0ZSg1MC41NDE2NjY5ODQ1NTgxMDUsMzQuNjAwMDAwMzgxNDY5NzMpIiB5PSIwIiB4PSIwIiBpZD0idGV4dC1lbnRpdHktYWRkcmVzc3RyYW5zbGF0aW9uLTk3MDcyNzNmLTQyNzYtNWJhNC1iZTU3LTFhYzIzNzlhNWM1YS1hdHRyLTEtbmFtZSIgY2xhc3M9ImVyIGVudGl0eUxhYmVsIj5pZDwvdGV4dD48cmVjdCBoZWlnaHQ9IjIyIiB3aWR0aD0iMjQuMzE2NzYyOTI0MTk0MzM2IiB5PSIyMy42MDAwMDAzODE0Njk3MjciIHg9IjExMC43NDU3MzcwNzU4MDU2NiIgY2xhc3M9ImVyIGF0dHJpYnV0ZUJveE9kZCI+PC9yZWN0Pjx0ZXh0IHN0eWxlPSJkb21pbmFudC1iYXNlbGluZTogbWlkZGxlOyBmb250LXNpemU6IDEwLjJweDsiIHRyYW5zZm9ybT0idHJhbnNsYXRlKDExNS43NDU3MzcwNzU4MDU2NiwzNC42MDAwMDAzODE0Njk3MykiIHk9IjAiIHg9IjAiIGlkPSJ0ZXh0LWVudGl0eS1hZGRyZXNzdHJhbnNsYXRpb24tOTcwNzI3M2YtNDI3Ni01YmE0LWJlNTctMWFjMjM3OWE1YzVhLWF0dHItMS1rZXkiIGNsYXNzPSJlciBlbnRpdHlMYWJlbCI+UEs8L3RleHQ+PHJlY3QgaGVpZ2h0PSIyMiIgd2lkdGg9IjQ1LjU0MTY2Njk4NDU1ODEwNSIgeT0iNDUuNjAwMDAwMzgxNDY5NzMiIHg9IjAiIGNsYXNzPSJlciBhdHRyaWJ1dGVCb3hFdmVuIj48L3JlY3Q+PHRleHQgc3R5bGU9ImRvbWluYW50LWJhc2VsaW5lOiBtaWRkbGU7IGZvbnQtc2l6ZTogMTAuMnB4OyIgdHJhbnNmb3JtPSJ0cmFuc2xhdGUoNSw1Ni42MDAwMDAzODE0Njk3MykiIHk9IjAiIHg9IjAiIGlkPSJ0ZXh0LWVudGl0eS1hZGRyZXNzdHJhbnNsYXRpb24tOTcwNzI3M2YtNDI3Ni01YmE0LWJlNTctMWFjMjM3OWE1YzVhLWF0dHItMi10eXBlIiBjbGFzcz0iZXIgZW50aXR5TGFiZWwiPklOVDwvdGV4dD48cmVjdCBoZWlnaHQ9IjIyIiB3aWR0aD0iNjUuMjA0MDcwMDkxMjQ3NTYiIHk9IjQ1LjYwMDAwMDM4MTQ2OTczIiB4PSI0NS41NDE2NjY5ODQ1NTgxMDUiIGNsYXNzPSJlciBhdHRyaWJ1dGVCb3hFdmVuIj48L3JlY3Q+PHRleHQgc3R5bGU9ImRvbWluYW50LWJhc2VsaW5lOiBtaWRkbGU7IGZvbnQtc2l6ZTogMTAuMnB4OyIgdHJhbnNmb3JtPSJ0cmFuc2xhdGUoNTAuNTQxNjY2OTg0NTU4MTA1LDU2LjYwMDAwMDM4MTQ2OTczKSIgeT0iMCIgeD0iMCIgaWQ9InRleHQtZW50aXR5LWFkZHJlc3N0cmFuc2xhdGlvbi05NzA3MjczZi00Mjc2LTViYTQtYmU1Ny0xYWMyMzc5YTVjNWEtYXR0ci0yLW5hbWUiIGNsYXNzPSJlciBlbnRpdHlMYWJlbCI+YXJlYV96aXBfaWQ8L3RleHQ+PHJlY3QgaGVpZ2h0PSIyMiIgd2lkdGg9IjI0LjMxNjc2MjkyNDE5NDMzNiIgeT0iNDUuNjAwMDAwMzgxNDY5NzMiIHg9IjExMC43NDU3MzcwNzU4MDU2NiIgY2xhc3M9ImVyIGF0dHJpYnV0ZUJveEV2ZW4iPjwvcmVjdD48dGV4dCBzdHlsZT0iZG9taW5hbnQtYmFzZWxpbmU6IG1pZGRsZTsgZm9udC1zaXplOiAxMC4ycHg7IiB0cmFuc2Zvcm09InRyYW5zbGF0ZSgxMTUuNzQ1NzM3MDc1ODA1NjYsNTYuNjAwMDAwMzgxNDY5NzMpIiB5PSIwIiB4PSIwIiBpZD0idGV4dC1lbnRpdHktYWRkcmVzc3RyYW5zbGF0aW9uLTk3MDcyNzNmLTQyNzYtNWJhNC1iZTU3LTFhYzIzNzlhNWM1YS1hdHRyLTIta2V5IiBjbGFzcz0iZXIgZW50aXR5TGFiZWwiPkZLPC90ZXh0PjxyZWN0IGhlaWdodD0iMjIiIHdpZHRoPSI0NS41NDE2NjY5ODQ1NTgxMDUiIHk9IjY3LjYwMDAwMDM4MTQ2OTczIiB4PSIwIiBjbGFzcz0iZXIgYXR0cmlidXRlQm94T2RkIj48L3JlY3Q+PHRleHQgc3R5bGU9ImRvbWluYW50LWJhc2VsaW5lOiBtaWRkbGU7IGZvbnQtc2l6ZTogMTAuMnB4OyIgdHJhbnNmb3JtPSJ0cmFuc2xhdGUoNSw3OC42MDAwMDAzODE0Njk3MykiIHk9IjAiIHg9IjAiIGlkPSJ0ZXh0LWVudGl0eS1hZGRyZXNzdHJhbnNsYXRpb24tOTcwNzI3M2YtNDI3Ni01YmE0LWJlNTctMWFjMjM3OWE1YzVhLWF0dHItMy10eXBlIiBjbGFzcz0iZXIgZW50aXR5TGFiZWwiPlNUUklORzwvdGV4dD48cmVjdCBoZWlnaHQ9IjIyIiB3aWR0aD0iNjUuMjA0MDcwMDkxMjQ3NTYiIHk9IjY3LjYwMDAwMDM4MTQ2OTczIiB4PSI0NS41NDE2NjY5ODQ1NTgxMDUiIGNsYXNzPSJlciBhdHRyaWJ1dGVCb3hPZGQiPjwvcmVjdD48dGV4dCBzdHlsZT0iZG9taW5hbnQtYmFzZWxpbmU6IG1pZGRsZTsgZm9udC1zaXplOiAxMC4ycHg7IiB0cmFuc2Zvcm09InRyYW5zbGF0ZSg1MC41NDE2NjY5ODQ1NTgxMDUsNzguNjAwMDAwMzgxNDY5NzMpIiB5PSIwIiB4PSIwIiBpZD0idGV4dC1lbnRpdHktYWRkcmVzc3RyYW5zbGF0aW9uLTk3MDcyNzNmLTQyNzYtNWJhNC1iZTU3LTFhYzIzNzlhNWM1YS1hdHRyLTMtbmFtZSIgY2xhc3M9ImVyIGVudGl0eUxhYmVsIj5qcDwvdGV4dD48cmVjdCBoZWlnaHQ9IjIyIiB3aWR0aD0iMjQuMzE2NzYyOTI0MTk0MzM2IiB5PSI2Ny42MDAwMDAzODE0Njk3MyIgeD0iMTEwLjc0NTczNzA3NTgwNTY2IiBjbGFzcz0iZXIgYXR0cmlidXRlQm94T2RkIj48L3JlY3Q+PHRleHQgc3R5bGU9ImRvbWluYW50LWJhc2VsaW5lOiBtaWRkbGU7IGZvbnQtc2l6ZTogMTAuMnB4OyIgdHJhbnNmb3JtPSJ0cmFuc2xhdGUoMTE1Ljc0NTczNzA3NTgwNTY2LDc4LjYwMDAwMDM4MTQ2OTczKSIgeT0iMCIgeD0iMCIgaWQ9InRleHQtZW50aXR5LWFkZHJlc3N0cmFuc2xhdGlvbi05NzA3MjczZi00Mjc2LTViYTQtYmU1Ny0xYWMyMzc5YTVjNWEtYXR0ci0zLWtleSIgY2xhc3M9ImVyIGVudGl0eUxhYmVsIj48L3RleHQ+PHJlY3QgaGVpZ2h0PSIyMiIgd2lkdGg9IjQ1LjU0MTY2Njk4NDU1ODEwNSIgeT0iODkuNjAwMDAwMzgxNDY5NzMiIHg9IjAiIGNsYXNzPSJlciBhdHRyaWJ1dGVCb3hFdmVuIj48L3JlY3Q+PHRleHQgc3R5bGU9ImRvbWluYW50LWJhc2VsaW5lOiBtaWRkbGU7IGZvbnQtc2l6ZTogMTAuMnB4OyIgdHJhbnNmb3JtPSJ0cmFuc2xhdGUoNSwxMDAuNjAwMDAwMzgxNDY5NzMpIiB5PSIwIiB4PSIwIiBpZD0idGV4dC1lbnRpdHktYWRkcmVzc3RyYW5zbGF0aW9uLTk3MDcyNzNmLTQyNzYtNWJhNC1iZTU3LTFhYzIzNzlhNWM1YS1hdHRyLTQtdHlwZSIgY2xhc3M9ImVyIGVudGl0eUxhYmVsIj5TVFJJTkc8L3RleHQ+PHJlY3QgaGVpZ2h0PSIyMiIgd2lkdGg9IjY1LjIwNDA3MDA5MTI0NzU2IiB5PSI4OS42MDAwMDAzODE0Njk3MyIgeD0iNDUuNTQxNjY2OTg0NTU4MTA1IiBjbGFzcz0iZXIgYXR0cmlidXRlQm94RXZlbiI+PC9yZWN0Pjx0ZXh0IHN0eWxlPSJkb21pbmFudC1iYXNlbGluZTogbWlkZGxlOyBmb250LXNpemU6IDEwLjJweDsiIHRyYW5zZm9ybT0idHJhbnNsYXRlKDUwLjU0MTY2Njk4NDU1ODEwNSwxMDAuNjAwMDAwMzgxNDY5NzMpIiB5PSIwIiB4PSIwIiBpZD0idGV4dC1lbnRpdHktYWRkcmVzc3RyYW5zbGF0aW9uLTk3MDcyNzNmLTQyNzYtNWJhNC1iZTU3LTFhYzIzNzlhNWM1YS1hdHRyLTQtbmFtZSIgY2xhc3M9ImVyIGVudGl0eUxhYmVsIj5lbjwvdGV4dD48cmVjdCBoZWlnaHQ9IjIyIiB3aWR0aD0iMjQuMzE2NzYyOTI0MTk0MzM2IiB5PSI4OS42MDAwMDAzODE0Njk3MyIgeD0iMTEwLjc0NTczNzA3NTgwNTY2IiBjbGFzcz0iZXIgYXR0cmlidXRlQm94RXZlbiI+PC9yZWN0Pjx0ZXh0IHN0eWxlPSJkb21pbmFudC1iYXNlbGluZTogbWlkZGxlOyBmb250LXNpemU6IDEwLjJweDsiIHRyYW5zZm9ybT0idHJhbnNsYXRlKDExNS43NDU3MzcwNzU4MDU2NiwxMDAuNjAwMDAwMzgxNDY5NzMpIiB5PSIwIiB4PSIwIiBpZD0idGV4dC1lbnRpdHktYWRkcmVzc3RyYW5zbGF0aW9uLTk3MDcyNzNmLTQyNzYtNWJhNC1iZTU3LTFhYzIzNzlhNWM1YS1hdHRyLTQta2V5IiBjbGFzcz0iZXIgZW50aXR5TGFiZWwiPjwvdGV4dD48L2c+PGcgdHJhbnNmb3JtPSJ0cmFuc2xhdGUoNDg2LjgyNjg1MDg5MTExMzMsNDIxLjIwMDAwMDc2MjkzOTQ1ICkiIGlkPSJlbnRpdHktYXJlYXNvcnRpbmctYjQ0ZjQ4NTEtNTE1OC01YmRmLWJmOTMtNjQyMTczMGQ0NzNhIj48cmVjdCBoZWlnaHQ9Ijg5LjYwMDAwMDM4MTQ2OTczIiB3aWR0aD0iMTAyLjk5ODUzNzA2MzU5ODYzIiB5PSIwIiB4PSIwIiBjbGFzcz0iZXIgZW50aXR5Qm94Ij48L3JlY3Q+PHRleHQgc3R5bGU9ImRvbWluYW50LWJhc2VsaW5lOiBtaWRkbGU7IHRleHQtYW5jaG9yOiBtaWRkbGU7IGZvbnQtc2l6ZTogMTJweDsiIHRyYW5zZm9ybT0idHJhbnNsYXRlKDUxLjQ5OTI2ODUzMTc5OTMxNiwxMS44MDAwMDAxOTA3MzQ4NjMpIiB5PSIwIiB4PSIwIiBpZD0idGV4dC1lbnRpdHktYXJlYXNvcnRpbmctYjQ0ZjQ4NTEtNTE1OC01YmRmLWJmOTMtNjQyMTczMGQ0NzNhIiBjbGFzcz0iZXIgZW50aXR5TGFiZWwiPmFyZWFfc29ydGluZzwvdGV4dD48cmVjdCBoZWlnaHQ9IjIyIiB3aWR0aD0iMjUuNzQ4MzM5NjUzMDE1MTM3IiB5PSIyMy42MDAwMDAzODE0Njk3MjciIHg9IjAiIGNsYXNzPSJlciBhdHRyaWJ1dGVCb3hPZGQiPjwvcmVjdD48dGV4dCBzdHlsZT0iZG9taW5hbnQtYmFzZWxpbmU6IG1pZGRsZTsgZm9udC1zaXplOiAxMC4ycHg7IiB0cmFuc2Zvcm09InRyYW5zbGF0ZSg1LDM0LjYwMDAwMDM4MTQ2OTczKSIgeT0iMCIgeD0iMCIgaWQ9InRleHQtZW50aXR5LWFyZWFzb3J0aW5nLWI0NGY0ODUxLTUxNTgtNWJkZi1iZjkzLTY0MjE3MzBkNDczYS1hdHRyLTEtdHlwZSIgY2xhc3M9ImVyIGVudGl0eUxhYmVsIj5JTlQ8L3RleHQ+PHJlY3QgaGVpZ2h0PSIyMiIgd2lkdGg9IjU1LjE2MjUwMjI4ODgxODM2IiB5PSIyMy42MDAwMDAzODE0Njk3MjciIHg9IjI1Ljc0ODMzOTY1MzAxNTEzNyIgY2xhc3M9ImVyIGF0dHJpYnV0ZUJveE9kZCI+PC9yZWN0Pjx0ZXh0IHN0eWxlPSJkb21pbmFudC1iYXNlbGluZTogbWlkZGxlOyBmb250LXNpemU6IDEwLjJweDsiIHRyYW5zZm9ybT0idHJhbnNsYXRlKDMwLjc0ODMzOTY1MzAxNTEzNywzNC42MDAwMDAzODE0Njk3MykiIHk9IjAiIHg9IjAiIGlkPSJ0ZXh0LWVudGl0eS1hcmVhc29ydGluZy1iNDRmNDg1MS01MTU4LTViZGYtYmY5My02NDIxNzMwZDQ3M2EtYXR0ci0xLW5hbWUiIGNsYXNzPSJlciBlbnRpdHlMYWJlbCI+aWQ8L3RleHQ+PHJlY3QgaGVpZ2h0PSIyMiIgd2lkdGg9IjIyLjA4NzY5NTEyMTc2NTEzNyIgeT0iMjMuNjAwMDAwMzgxNDY5NzI3IiB4PSI4MC45MTA4NDE5NDE4MzM1IiBjbGFzcz0iZXIgYXR0cmlidXRlQm94T2RkIj48L3JlY3Q+PHRleHQgc3R5bGU9ImRvbWluYW50LWJhc2VsaW5lOiBtaWRkbGU7IGZvbnQtc2l6ZTogMTAuMnB4OyIgdHJhbnNmb3JtPSJ0cmFuc2xhdGUoODUuOTEwODQxOTQxODMzNSwzNC42MDAwMDAzODE0Njk3MykiIHk9IjAiIHg9IjAiIGlkPSJ0ZXh0LWVudGl0eS1hcmVhc29ydGluZy1iNDRmNDg1MS01MTU4LTViZGYtYmY5My02NDIxNzMwZDQ3M2EtYXR0ci0xLWtleSIgY2xhc3M9ImVyIGVudGl0eUxhYmVsIj5QSzwvdGV4dD48cmVjdCBoZWlnaHQ9IjIyIiB3aWR0aD0iMjUuNzQ4MzM5NjUzMDE1MTM3IiB5PSI0NS42MDAwMDAzODE0Njk3MyIgeD0iMCIgY2xhc3M9ImVyIGF0dHJpYnV0ZUJveEV2ZW4iPjwvcmVjdD48dGV4dCBzdHlsZT0iZG9taW5hbnQtYmFzZWxpbmU6IG1pZGRsZTsgZm9udC1zaXplOiAxMC4ycHg7IiB0cmFuc2Zvcm09InRyYW5zbGF0ZSg1LDU2LjYwMDAwMDM4MTQ2OTczKSIgeT0iMCIgeD0iMCIgaWQ9InRleHQtZW50aXR5LWFyZWFzb3J0aW5nLWI0NGY0ODUxLTUxNTgtNWJkZi1iZjkzLTY0MjE3MzBkNDczYS1hdHRyLTItdHlwZSIgY2xhc3M9ImVyIGVudGl0eUxhYmVsIj5JTlQ8L3RleHQ+PHJlY3QgaGVpZ2h0PSIyMiIgd2lkdGg9IjU1LjE2MjUwMjI4ODgxODM2IiB5PSI0NS42MDAwMDAzODE0Njk3MyIgeD0iMjUuNzQ4MzM5NjUzMDE1MTM3IiBjbGFzcz0iZXIgYXR0cmlidXRlQm94RXZlbiI+PC9yZWN0Pjx0ZXh0IHN0eWxlPSJkb21pbmFudC1iYXNlbGluZTogbWlkZGxlOyBmb250LXNpemU6IDEwLjJweDsiIHRyYW5zZm9ybT0idHJhbnNsYXRlKDMwLjc0ODMzOTY1MzAxNTEzNyw1Ni42MDAwMDAzODE0Njk3MykiIHk9IjAiIHg9IjAiIGlkPSJ0ZXh0LWVudGl0eS1hcmVhc29ydGluZy1iNDRmNDg1MS01MTU4LTViZGYtYmY5My02NDIxNzMwZDQ3M2EtYXR0ci0yLW5hbWUiIGNsYXNzPSJlciBlbnRpdHlMYWJlbCI+YXJlYV9pZDwvdGV4dD48cmVjdCBoZWlnaHQ9IjIyIiB3aWR0aD0iMjIuMDg3Njk1MTIxNzY1MTM3IiB5PSI0NS42MDAwMDAzODE0Njk3MyIgeD0iODAuOTEwODQxOTQxODMzNSIgY2xhc3M9ImVyIGF0dHJpYnV0ZUJveEV2ZW4iPjwvcmVjdD48dGV4dCBzdHlsZT0iZG9taW5hbnQtYmFzZWxpbmU6IG1pZGRsZTsgZm9udC1zaXplOiAxMC4ycHg7IiB0cmFuc2Zvcm09InRyYW5zbGF0ZSg4NS45MTA4NDE5NDE4MzM1LDU2LjYwMDAwMDM4MTQ2OTczKSIgeT0iMCIgeD0iMCIgaWQ9InRleHQtZW50aXR5LWFyZWFzb3J0aW5nLWI0NGY0ODUxLTUxNTgtNWJkZi1iZjkzLTY0MjE3MzBkNDczYS1hdHRyLTIta2V5IiBjbGFzcz0iZXIgZW50aXR5TGFiZWwiPkZLPC90ZXh0PjxyZWN0IGhlaWdodD0iMjIiIHdpZHRoPSIyNS43NDgzMzk2NTMwMTUxMzciIHk9IjY3LjYwMDAwMDM4MTQ2OTczIiB4PSIwIiBjbGFzcz0iZXIgYXR0cmlidXRlQm94T2RkIj48L3JlY3Q+PHRleHQgc3R5bGU9ImRvbWluYW50LWJhc2VsaW5lOiBtaWRkbGU7IGZvbnQtc2l6ZTogMTAuMnB4OyIgdHJhbnNmb3JtPSJ0cmFuc2xhdGUoNSw3OC42MDAwMDAzODE0Njk3MykiIHk9IjAiIHg9IjAiIGlkPSJ0ZXh0LWVudGl0eS1hcmVhc29ydGluZy1iNDRmNDg1MS01MTU4LTViZGYtYmY5My02NDIxNzMwZDQ3M2EtYXR0ci0zLXR5cGUiIGNsYXNzPSJlciBlbnRpdHlMYWJlbCI+SU5UPC90ZXh0PjxyZWN0IGhlaWdodD0iMjIiIHdpZHRoPSI1NS4xNjI1MDIyODg4MTgzNiIgeT0iNjcuNjAwMDAwMzgxNDY5NzMiIHg9IjI1Ljc0ODMzOTY1MzAxNTEzNyIgY2xhc3M9ImVyIGF0dHJpYnV0ZUJveE9kZCI+PC9yZWN0Pjx0ZXh0IHN0eWxlPSJkb21pbmFudC1iYXNlbGluZTogbWlkZGxlOyBmb250LXNpemU6IDEwLjJweDsiIHRyYW5zZm9ybT0idHJhbnNsYXRlKDMwLjc0ODMzOTY1MzAxNTEzNyw3OC42MDAwMDAzODE0Njk3MykiIHk9IjAiIHg9IjAiIGlkPSJ0ZXh0LWVudGl0eS1hcmVhc29ydGluZy1iNDRmNDg1MS01MTU4LTViZGYtYmY5My02NDIxNzMwZDQ3M2EtYXR0ci0zLW5hbWUiIGNsYXNzPSJlciBlbnRpdHlMYWJlbCI+c29ydGluZ19pZDwvdGV4dD48cmVjdCBoZWlnaHQ9IjIyIiB3aWR0aD0iMjIuMDg3Njk1MTIxNzY1MTM3IiB5PSI2Ny42MDAwMDAzODE0Njk3MyIgeD0iODAuOTEwODQxOTQxODMzNSIgY2xhc3M9ImVyIGF0dHJpYnV0ZUJveE9kZCI+PC9yZWN0Pjx0ZXh0IHN0eWxlPSJkb21pbmFudC1iYXNlbGluZTogbWlkZGxlOyBmb250LXNpemU6IDEwLjJweDsiIHRyYW5zZm9ybT0idHJhbnNsYXRlKDg1LjkxMDg0MTk0MTgzMzUsNzguNjAwMDAwMzgxNDY5NzMpIiB5PSIwIiB4PSIwIiBpZD0idGV4dC1lbnRpdHktYXJlYXNvcnRpbmctYjQ0ZjQ4NTEtNTE1OC01YmRmLWJmOTMtNjQyMTczMGQ0NzNhLWF0dHItMy1rZXkiIGNsYXNzPSJlciBlbnRpdHlMYWJlbCI+Rks8L3RleHQ+PC9nPjxnIHRyYW5zZm9ybT0idHJhbnNsYXRlKDQ4OC4xMjY1MTA2MjAxMTcyLDMxICkiIGlkPSJlbnRpdHktd2FyZHMtODQ1ZDgzNTUtZGYyMS01NWY0LTg3OWQtN2U2ZTE4NjU0Yjk5Ij48cmVjdCBoZWlnaHQ9IjY3LjYwMDAwMDM4MTQ2OTczIiB3aWR0aD0iMTAwLjM5OTIyMDQ2NjYxMzc3IiB5PSIwIiB4PSIwIiBjbGFzcz0iZXIgZW50aXR5Qm94Ij48L3JlY3Q+PHRleHQgc3R5bGU9ImRvbWluYW50LWJhc2VsaW5lOiBtaWRkbGU7IHRleHQtYW5jaG9yOiBtaWRkbGU7IGZvbnQtc2l6ZTogMTJweDsiIHRyYW5zZm9ybT0idHJhbnNsYXRlKDUwLjE5OTYxMDIzMzMwNjg4NSwxMS44MDAwMDAxOTA3MzQ4NjMpIiB5PSIwIiB4PSIwIiBpZD0idGV4dC1lbnRpdHktd2FyZHMtODQ1ZDgzNTUtZGYyMS01NWY0LTg3OWQtN2U2ZTE4NjU0Yjk5IiBjbGFzcz0iZXIgZW50aXR5TGFiZWwiPndhcmRzPC90ZXh0PjxyZWN0IGhlaWdodD0iMjIiIHdpZHRoPSI0My4zMTI1OTkxODIxMjg5MDYiIHk9IjIzLjYwMDAwMDM4MTQ2OTcyNyIgeD0iMCIgY2xhc3M9ImVyIGF0dHJpYnV0ZUJveE9kZCI+PC9yZWN0Pjx0ZXh0IHN0eWxlPSJkb21pbmFudC1iYXNlbGluZTogbWlkZGxlOyBmb250LXNpemU6IDEwLjJweDsiIHRyYW5zZm9ybT0idHJhbnNsYXRlKDUsMzQuNjAwMDAwMzgxNDY5NzMpIiB5PSIwIiB4PSIwIiBpZD0idGV4dC1lbnRpdHktd2FyZHMtODQ1ZDgzNTUtZGYyMS01NWY0LTg3OWQtN2U2ZTE4NjU0Yjk5LWF0dHItMS10eXBlIiBjbGFzcz0iZXIgZW50aXR5TGFiZWwiPklOVDwvdGV4dD48cmVjdCBoZWlnaHQ9IjIyIiB3aWR0aD0iMzQuOTk4OTI2MTYyNzE5NzMiIHk9IjIzLjYwMDAwMDM4MTQ2OTcyNyIgeD0iNDMuMzEyNTk5MTgyMTI4OTA2IiBjbGFzcz0iZXIgYXR0cmlidXRlQm94T2RkIj48L3JlY3Q+PHRleHQgc3R5bGU9ImRvbWluYW50LWJhc2VsaW5lOiBtaWRkbGU7IGZvbnQtc2l6ZTogMTAuMnB4OyIgdHJhbnNmb3JtPSJ0cmFuc2xhdGUoNDguMzEyNTk5MTgyMTI4OTA2LDM0LjYwMDAwMDM4MTQ2OTczKSIgeT0iMCIgeD0iMCIgaWQ9InRleHQtZW50aXR5LXdhcmRzLTg0NWQ4MzU1LWRmMjEtNTVmNC04NzlkLTdlNmUxODY1NGI5OS1hdHRyLTEtbmFtZSIgY2xhc3M9ImVyIGVudGl0eUxhYmVsIj5pZDwvdGV4dD48cmVjdCBoZWlnaHQ9IjIyIiB3aWR0aD0iMjIuMDg3Njk1MTIxNzY1MTM3IiB5PSIyMy42MDAwMDAzODE0Njk3MjciIHg9Ijc4LjMxMTUyNTM0NDg0ODYzIiBjbGFzcz0iZXIgYXR0cmlidXRlQm94T2RkIj48L3JlY3Q+PHRleHQgc3R5bGU9ImRvbWluYW50LWJhc2VsaW5lOiBtaWRkbGU7IGZvbnQtc2l6ZTogMTAuMnB4OyIgdHJhbnNmb3JtPSJ0cmFuc2xhdGUoODMuMzExNTI1MzQ0ODQ4NjMsMzQuNjAwMDAwMzgxNDY5NzMpIiB5PSIwIiB4PSIwIiBpZD0idGV4dC1lbnRpdHktd2FyZHMtODQ1ZDgzNTUtZGYyMS01NWY0LTg3OWQtN2U2ZTE4NjU0Yjk5LWF0dHItMS1rZXkiIGNsYXNzPSJlciBlbnRpdHlMYWJlbCI+UEs8L3RleHQ+PHJlY3QgaGVpZ2h0PSIyMiIgd2lkdGg9IjQzLjMxMjU5OTE4MjEyODkwNiIgeT0iNDUuNjAwMDAwMzgxNDY5NzMiIHg9IjAiIGNsYXNzPSJlciBhdHRyaWJ1dGVCb3hFdmVuIj48L3JlY3Q+PHRleHQgc3R5bGU9ImRvbWluYW50LWJhc2VsaW5lOiBtaWRkbGU7IGZvbnQtc2l6ZTogMTAuMnB4OyIgdHJhbnNmb3JtPSJ0cmFuc2xhdGUoNSw1Ni42MDAwMDAzODE0Njk3MykiIHk9IjAiIHg9IjAiIGlkPSJ0ZXh0LWVudGl0eS13YXJkcy04NDVkODM1NS1kZjIxLTU1ZjQtODc5ZC03ZTZlMTg2NTRiOTktYXR0ci0yLXR5cGUiIGNsYXNzPSJlciBlbnRpdHlMYWJlbCI+U1RSSU5HPC90ZXh0PjxyZWN0IGhlaWdodD0iMjIiIHdpZHRoPSIzNC45OTg5MjYxNjI3MTk3MyIgeT0iNDUuNjAwMDAwMzgxNDY5NzMiIHg9IjQzLjMxMjU5OTE4MjEyODkwNiIgY2xhc3M9ImVyIGF0dHJpYnV0ZUJveEV2ZW4iPjwvcmVjdD48dGV4dCBzdHlsZT0iZG9taW5hbnQtYmFzZWxpbmU6IG1pZGRsZTsgZm9udC1zaXplOiAxMC4ycHg7IiB0cmFuc2Zvcm09InRyYW5zbGF0ZSg0OC4zMTI1OTkxODIxMjg5MDYsNTYuNjAwMDAwMzgxNDY5NzMpIiB5PSIwIiB4PSIwIiBpZD0idGV4dC1lbnRpdHktd2FyZHMtODQ1ZDgzNTUtZGYyMS01NWY0LTg3OWQtN2U2ZTE4NjU0Yjk5LWF0dHItMi1uYW1lIiBjbGFzcz0iZXIgZW50aXR5TGFiZWwiPm5hbWU8L3RleHQ+PHJlY3QgaGVpZ2h0PSIyMiIgd2lkdGg9IjIyLjA4NzY5NTEyMTc2NTEzNyIgeT0iNDUuNjAwMDAwMzgxNDY5NzMiIHg9Ijc4LjMxMTUyNTM0NDg0ODYzIiBjbGFzcz0iZXIgYXR0cmlidXRlQm94RXZlbiI+PC9yZWN0Pjx0ZXh0IHN0eWxlPSJkb21pbmFudC1iYXNlbGluZTogbWlkZGxlOyBmb250LXNpemU6IDEwLjJweDsiIHRyYW5zZm9ybT0idHJhbnNsYXRlKDgzLjMxMTUyNTM0NDg0ODYzLDU2LjYwMDAwMDM4MTQ2OTczKSIgeT0iMCIgeD0iMCIgaWQ9InRleHQtZW50aXR5LXdhcmRzLTg0NWQ4MzU1LWRmMjEtNTVmNC04NzlkLTdlNmUxODY1NGI5OS1hdHRyLTIta2V5IiBjbGFzcz0iZXIgZW50aXR5TGFiZWwiPjwvdGV4dD48L2c+PHJlY3QgaGVpZ2h0PSIxMy42MDAwMDAzODE0Njk3MjciIHdpZHRoPSI5Mi4zMzc1MDE1MjU4Nzg5IiB5PSIxNTguMzAwMDA1OTEyNzgwNzYiIHg9IjEwMS41MjUyNDk0ODEyMDExNyIgY2xhc3M9ImVyIHJlbGF0aW9uc2hpcExhYmVsQm94Ij48L3JlY3Q+PHRleHQgc3R5bGU9InRleHQtYW5jaG9yOiBtaWRkbGU7IGRvbWluYW50LWJhc2VsaW5lOiBtaWRkbGU7IGZvbnQtc2l6ZTogMTJweDsiIHk9IjE2NS4xMDAwMDYxMDM1MTU2MiIgeD0iMTQ3LjY5NDAwMDI0NDE0MDYyIiBpZD0icmVsMSIgY2xhc3M9ImVyIHJlbGF0aW9uc2hpcExhYmVsIj5jYXRlZ29yeV9pZCDihpIgaWQ8L3RleHQ+PHJlY3QgaGVpZ2h0PSIxMy42MDAwMDAzODE0Njk3MjciIHdpZHRoPSIxMjMuNDM3NSIgeT0iMzM0LjQ4ODAyNDcxMTYwODkiIHg9IjQzLjI2MTAxNjg0NTcwMzEyNSIgY2xhc3M9ImVyIHJlbGF0aW9uc2hpcExhYmVsQm94Ij48L3JlY3Q+PHRleHQgc3R5bGU9InRleHQtYW5jaG9yOiBtaWRkbGU7IGRvbWluYW50LWJhc2VsaW5lOiBtaWRkbGU7IGZvbnQtc2l6ZTogMTJweDsiIHk9IjM0MS4yODgwMjQ5MDIzNDM3NSIgeD0iMTA0Ljk3OTc2Njg0NTcwMzEyIiBpZD0icmVsMiIgY2xhc3M9ImVyIHJlbGF0aW9uc2hpcExhYmVsIj5pZCDihpIgc29ydGluZ251bWJlcl9pZDwvdGV4dD48cmVjdCBoZWlnaHQ9IjEzLjYwMDAwMDM4MTQ2OTcyNyIgd2lkdGg9IjY5LjU2MjUiIHk9IjMyMi40MDUzMjIwNzQ4OTAxNCIgeD0iMzQ3LjQzMDY2NDA2MjUiIGNsYXNzPSJlciByZWxhdGlvbnNoaXBMYWJlbEJveCI+PC9yZWN0Pjx0ZXh0IHN0eWxlPSJ0ZXh0LWFuY2hvcjogbWlkZGxlOyBkb21pbmFudC1iYXNlbGluZTogbWlkZGxlOyBmb250LXNpemU6IDEycHg7IiB5PSIzMjkuMjA1MzIyMjY1NjI1IiB4PSIzODIuMjExOTE0MDYyNSIgaWQ9InJlbDMiIGNsYXNzPSJlciByZWxhdGlvbnNoaXBMYWJlbCI+aWQg4oaSIGFyZWFfaWQ8L3RleHQ+PHJlY3QgaGVpZ2h0PSIxMy42MDAwMDAzODE0Njk3MjciIHdpZHRoPSI5MS42NjI0OTg0NzQxMjExIiB5PSI1NzAuNDk5OTg3NjAyMjMzOSIgeD0iMjg1LjI3NTc0NTM5MTg0NTciIGNsYXNzPSJlciByZWxhdGlvbnNoaXBMYWJlbEJveCI+PC9yZWN0Pjx0ZXh0IHN0eWxlPSJ0ZXh0LWFuY2hvcjogbWlkZGxlOyBkb21pbmFudC1iYXNlbGluZTogbWlkZGxlOyBmb250LXNpemU6IDEycHg7IiB5PSI1NzcuMjk5OTg3NzkyOTY4OCIgeD0iMzMxLjEwNjk5NDYyODkwNjI1IiBpZD0icmVsNCIgY2xhc3M9ImVyIHJlbGF0aW9uc2hpcExhYmVsIj5pZCDihpIgYXJlYV96aXBfaWQ8L3RleHQ+PHJlY3QgaGVpZ2h0PSIxMy42MDAwMDAzODE0Njk3MjciIHdpZHRoPSI2OS41NjI1IiB5PSIzNTMuNDAwMDEyMDE2Mjk2NCIgeD0iNTAzLjU0NDczODc2OTUzMTI1IiBjbGFzcz0iZXIgcmVsYXRpb25zaGlwTGFiZWxCb3giPjwvcmVjdD48dGV4dCBzdHlsZT0idGV4dC1hbmNob3I6IG1pZGRsZTsgZG9taW5hbnQtYmFzZWxpbmU6IG1pZGRsZTsgZm9udC1zaXplOiAxMnB4OyIgeT0iMzYwLjIwMDAxMjIwNzAzMTI1IiB4PSI1MzguMzI1OTg4NzY5NTMxMiIgaWQ9InJlbDUiIGNsYXNzPSJlciByZWxhdGlvbnNoaXBMYWJlbCI+aWQg4oaSIGFyZWFfaWQ8L3RleHQ+PHJlY3QgaGVpZ2h0PSIxMy42MDAwMDAzODE0Njk3MjciIHdpZHRoPSI4Mi40NjI1MDE1MjU4Nzg5IiB5PSIzNzcuOTk0NjQ3MDI2MDYyIiB4PSIyNzcuNTk4NzM1ODA5MzI2MiIgY2xhc3M9ImVyIHJlbGF0aW9uc2hpcExhYmVsQm94Ij48L3JlY3Q+PHRleHQgc3R5bGU9InRleHQtYW5jaG9yOiBtaWRkbGU7IGRvbWluYW50LWJhc2VsaW5lOiBtaWRkbGU7IGZvbnQtc2l6ZTogMTJweDsiIHk9IjM4NC43OTQ2NDcyMTY3OTY5IiB4PSIzMTguODI5OTg2NTcyMjY1NiIgaWQ9InJlbDYiIGNsYXNzPSJlciByZWxhdGlvbnNoaXBMYWJlbCI+aWQg4oaSIHNvcnRpbmdfaWQ8L3RleHQ+PHJlY3QgaGVpZ2h0PSIxMy42MDAwMDAzODE0Njk3MjciIHdpZHRoPSI3Mi4zMjUwMDQ1Nzc2MzY3MiIgeT0iMTQ3LjMwMDAwNTkxMjc4MDc2IiB4PSI1MDIuMTYzNDg2NDgwNzEyOSIgY2xhc3M9ImVyIHJlbGF0aW9uc2hpcExhYmVsQm94Ij48L3JlY3Q+PHRleHQgc3R5bGU9InRleHQtYW5jaG9yOiBtaWRkbGU7IGRvbWluYW50LWJhc2VsaW5lOiBtaWRkbGU7IGZvbnQtc2l6ZTogMTJweDsiIHk9IjE1NC4xMDAwMDYxMDM1MTU2MiIgeD0iNTM4LjMyNTk4ODc2OTUzMTIiIGlkPSJyZWw3IiBjbGFzcz0iZXIgcmVsYXRpb25zaGlwTGFiZWwiPmlkIOKGkiB3YXJkX2lkPC90ZXh0Pjwvc3ZnPg==;" vertex="1" parent="1">
                        <mxGeometry x="100" y="-180" width="622.633544921875" height="764.3999633789062" as="geometry"/>
                    </mxCell>
                </UserObject>
            </root>
        </mxGraphModel>
    </diagram>
</mxfile>